<svg width="18" height="18" viewBox="0 0 18 18" fill="none" xmlns="http://www.w3.org/2000/svg">
<path fill-rule="evenodd" clip-rule="evenodd" d="M17.16 9.19323C17.16 8.5905 17.1059 8.01095 17.0055 7.45459H9V10.7425H13.5746C13.3775 11.8051 12.7786 12.7053 11.8784 13.308V15.4407H14.6255C16.2327 13.961 17.16 11.7819 17.16 9.19323Z" fill="#4285F4"/>
<path fill-rule="evenodd" clip-rule="evenodd" d="M8.99997 17.5C11.295 17.5 13.2191 16.7389 14.6254 15.4407L11.8784 13.3079C11.1173 13.8179 10.1436 14.1193 8.99997 14.1193C6.78611 14.1193 4.91224 12.6241 4.24383 10.615H1.40405V12.8173C2.80269 15.5952 5.67724 17.5 8.99997 17.5Z" fill="#34A853"/>
<path fill-rule="evenodd" clip-rule="evenodd" d="M4.24387 10.615C4.07387 10.105 3.97728 9.56025 3.97728 9.00002C3.97728 8.43979 4.07387 7.89502 4.24387 7.38502V5.18274H1.40409C0.82841 6.33024 0.5 7.62842 0.5 9.00002C0.5 10.3716 0.82841 11.6698 1.40409 12.8173L4.24387 10.615Z" fill="#FBBC05"/>
<path fill-rule="evenodd" clip-rule="evenodd" d="M8.99997 3.88069C10.2479 3.88069 11.3684 4.30955 12.2493 5.15183L14.6873 2.71387C13.2152 1.34227 11.2911 0.5 8.99997 0.5C5.67724 0.5 2.80269 2.40478 1.40405 5.18273L4.24383 7.38501C4.91224 5.37592 6.78611 3.88069 8.99997 3.88069Z" fill="#EA4335"/>
</svg>
