<svg width="566" height="321" viewBox="0 0 566 321" fill="none" xmlns="http://www.w3.org/2000/svg">
<path d="M565.94 235.045C565.562 256.939 561.35 278.439 554.729 298.889C553.773 301.788 548.482 320.32 546.073 320.321C542.31 320.322 538.547 320.322 534.785 320.323C493.048 320.331 451.31 320.339 409.573 320.346C327.325 320.359 245.077 320.372 162.83 320.383C114.122 320.39 65.4149 320.426 16.7074 320.393C13.5126 320.391 10.8513 315.625 9.01702 313.106C5.63984 308.47 3.29191 303.199 1.86597 297.609C-0.0769744 289.994 -1.29114 278.733 2.316 264.408C4.26368 256.673 8.43937 248.874 11.599 243.018C18.3832 230.443 27.2137 219.642 36.965 210.09C48.174 199.11 62.5946 188.999 68.1159 172.441C76.2806 147.956 62.2706 123.931 64.1826 99.2586C67.3703 58.1257 102.751 27.3827 133.831 13.5048C157.914 2.75146 184.606 0.149797 210.228 1.09211C222.764 1.55333 235.283 2.98242 247.649 5.4111C258.944 7.62937 272.247 9.89783 282.604 15.8801C304.821 25.3776 324.052 40.8161 340.35 60.5555C348.267 70.1448 355.291 80.9106 363.933 89.6662C374.245 100.113 384.798 99.7376 397.637 96.8612C422.066 91.3246 445.936 85.2913 470.698 92.2487C494.679 98.9868 515.295 115.816 532.318 135.979C554.823 162.646 566.56 197.845 565.94 235.045C566.087 226.222 565.915 236.467 565.94 235.045Z" fill="#204EA5"/>
<g clip-path="url(#clip0_18_287)">
<path d="M462.933 84.4236H103.086V286H462.933V84.4236Z" fill="#204EA5"/>
<path d="M462.983 235.255H103.086V292.756H462.983V235.255Z" fill="#C9EBF4"/>
<path d="M287.108 192.175H123.016V257.071H287.108V192.175Z" fill="#FFF8F3"/>
<path d="M282.712 200.574H127.754V253.156H282.712V200.574Z" stroke="#472A1C" stroke-width="1.1269" stroke-miterlimit="10" stroke-linecap="round" stroke-linejoin="round"/>
<path d="M104.1 173.315C168.649 173.315 233.199 173.315 297.748 173.315L326.711 202.019" stroke="#AEE3EC" stroke-width="1.6904" stroke-miterlimit="10" stroke-linecap="round" stroke-linejoin="round"/>
<path d="M104.1 166.051C168.649 166.051 233.199 166.051 297.748 166.051L331.677 198.614" stroke="#AEE3EC" stroke-width="1.6904" stroke-miterlimit="10" stroke-linecap="round" stroke-linejoin="round"/>
<path d="M451.177 124.514C451.345 124.013 451.437 123.479 451.437 122.925C451.437 120.054 448.99 117.705 445.999 117.705H316.427C313.436 117.705 310.989 120.054 310.989 122.925C310.989 123.479 311.081 124.013 311.249 124.514H451.177Z" fill="#FFF8F3"/>
<path d="M275.735 124.514C275.903 124.013 275.995 123.479 275.995 122.925C275.995 120.054 273.548 117.705 270.557 117.705H140.986C137.995 117.705 135.547 120.054 135.547 122.925C135.547 123.479 135.639 124.013 135.808 124.514H275.735Z" fill="#FFF8F3"/>
<path d="M154.227 118.123V91.3391" stroke="#FFF8F3" stroke-width="1.6904" stroke-miterlimit="10"/>
<path d="M255.898 118.123V91.3391" stroke="#FFF8F3" stroke-width="1.6904" stroke-miterlimit="10"/>
<path d="M326.358 118.123V91.3391" stroke="#FFF8F3" stroke-width="2" stroke-miterlimit="10"/>
<path d="M428.029 118.123V91.3391" stroke="#FFF8F3" stroke-width="2" stroke-miterlimit="10"/>
<path d="M377.117 131.446H327.617V167.518H377.117V131.446Z" stroke="#FFF8F3" stroke-width="1.1269" stroke-miterlimit="10"/>
<path d="M450.653 131.446H401.153V167.518H450.653V131.446Z" stroke="#FFF8F3" stroke-width="1.1269" stroke-miterlimit="10"/>
<path d="M332.033 146.758H370.81" stroke="#FFF8F3" stroke-width="1.1269" stroke-miterlimit="10"/>
<path d="M332.033 151.298H370.81" stroke="#FFF8F3" stroke-width="1.1269" stroke-miterlimit="10"/>
<path d="M332.033 155.837H370.81" stroke="#FFF8F3" stroke-width="1.1269" stroke-miterlimit="10"/>
<path d="M332.033 160.377H370.81" stroke="#FFF8F3" stroke-width="1.1269" stroke-miterlimit="10"/>
<path d="M337.759 137.317H335.124V144.034H337.759V137.317Z" fill="#FFF8F3"/>
<path d="M340.072 141.881V139.47H332.811V141.881H340.072Z" fill="#FFF8F3"/>
<path d="M406.749 146.758H425.903" stroke="#FFF8F3" stroke-width="1.1269" stroke-miterlimit="10"/>
<path d="M406.749 151.298H425.903" stroke="#FFF8F3" stroke-width="1.1269" stroke-miterlimit="10"/>
<path d="M406.749 155.837H425.903" stroke="#FFF8F3" stroke-width="1.1269" stroke-miterlimit="10"/>
<path d="M406.749 160.377H425.903" stroke="#FFF8F3" stroke-width="1.1269" stroke-miterlimit="10"/>
<path d="M443.55 151.934C443.491 151.64 443.524 151.127 443.318 150.56C443.148 150.094 443.33 149.16 443.348 147.955C443.365 146.75 443.027 145.982 443.027 145.982C442.947 145.554 442.679 143.459 442.679 143.459C442.679 143.459 442.927 141.542 441.879 140.874C441.361 140.544 441.02 140.713 440.467 140.468C439.915 140.224 439.473 140.036 439.464 139.926C439.458 139.847 439.456 139.555 439.456 139.4C439.563 139.275 439.659 139.124 439.751 138.953C439.829 138.808 439.872 138.651 439.898 138.494C440.001 138.462 440.045 138.288 440.066 138.14C440.092 137.957 440.244 137.788 440.168 137.555C440.121 137.41 440.042 137.404 439.99 137.421C440.059 136.991 440.047 136.394 439.634 136.054C439.258 135.745 438.694 135.749 438.694 135.749C438.694 135.749 438.13 135.745 437.755 136.054C437.342 136.394 437.33 136.991 437.399 137.421C437.347 137.404 437.268 137.41 437.221 137.555C437.146 137.789 437.298 137.958 437.323 138.14C437.344 138.288 437.388 138.461 437.49 138.494C437.516 138.651 437.56 138.808 437.638 138.953C437.725 139.116 437.817 139.259 437.917 139.381C437.919 139.543 437.922 139.824 437.916 139.901C437.907 140.01 437.475 140.224 436.922 140.468C436.368 140.712 436.028 140.544 435.509 140.874C434.462 141.542 434.71 143.459 434.71 143.459C434.71 143.459 434.442 145.554 434.362 145.982C434.362 145.982 434.024 146.75 434.041 147.955C434.059 149.16 434.24 150.095 434.071 150.56C433.865 151.127 433.898 151.64 433.839 151.934C433.768 152.292 434.407 153.458 434.674 153.28C434.844 153.168 434.349 152.469 434.402 152.164C434.456 151.858 434.613 151.441 434.696 151.575C434.779 151.708 434.784 151.952 434.912 152.123C435.04 152.295 435.244 152.263 435.12 151.765C434.995 151.268 435.084 151.352 434.986 151.046C434.888 150.741 434.776 150.797 434.852 150.313C434.928 149.828 435.682 147.965 435.723 146.16C435.723 146.16 436.225 144.617 436.26 144.362C436.26 144.362 436.331 144.727 436.484 145.287C436.54 145.493 436.513 145.782 436.493 146.055C436.468 146.403 436.429 146.738 436.329 146.993C436.152 147.447 436.184 147.34 436.039 147.862C435.795 148.743 435.826 149.055 435.575 151.021C435.414 152.278 435.466 153.134 435.486 153.826C435.521 155.095 436.056 155.508 435.956 156.887C435.926 157.297 435.793 158.206 435.836 159.228C435.883 160.325 436.111 161.551 436.285 162.371C436.497 163.378 436.275 163.454 436.263 163.675C436.243 164.041 436.288 164.448 436.1 164.641C435.913 164.833 435.69 164.946 435.762 165.191C435.813 165.367 436.679 165.495 437.099 165.496C437.563 165.497 437.59 165.357 437.456 164.894C437.322 164.432 437.264 164.245 437.331 163.951C437.402 163.637 437.266 163.547 437.257 163.058C437.248 162.569 437.469 161.901 437.742 160.808C438.098 159.376 437.59 158.817 437.688 157.158C437.71 156.783 437.989 155.914 438.125 154.758C438.243 153.744 438.452 153.047 438.512 152.33C438.599 151.29 438.598 151.212 438.693 151.207C438.788 151.212 438.787 151.29 438.874 152.33C438.934 153.047 439.142 153.744 439.261 154.758C439.397 155.914 439.676 156.783 439.698 157.158C439.796 158.817 439.288 159.376 439.644 160.808C439.916 161.901 440.137 162.568 440.128 163.058C440.12 163.547 439.983 163.637 440.054 163.951C440.121 164.245 440.063 164.431 439.929 164.894C439.796 165.357 439.822 165.497 440.286 165.496C440.705 165.495 441.572 165.367 441.623 165.191C441.695 164.946 441.472 164.833 441.285 164.641C441.098 164.448 441.142 164.042 441.122 163.675C441.11 163.453 440.888 163.377 441.101 162.371C441.274 161.551 441.503 160.326 441.549 159.228C441.592 158.206 441.46 157.297 441.43 156.887C441.329 155.508 441.864 155.095 441.9 153.826C441.919 153.134 441.971 152.278 441.811 151.021C441.56 149.055 441.59 148.743 441.346 147.862C441.202 147.34 441.234 147.447 441.056 146.993C440.964 146.758 440.934 146.45 440.903 146.129C440.874 145.828 440.84 145.514 440.901 145.287C441.054 144.727 441.126 144.362 441.126 144.362C441.16 144.617 441.662 146.16 441.662 146.16C441.704 147.965 442.458 149.828 442.533 150.313C442.609 150.797 442.498 150.741 442.399 151.046C442.302 151.352 442.391 151.268 442.266 151.765C442.141 152.263 442.346 152.295 442.474 152.123C442.601 151.952 442.606 151.708 442.689 151.575C442.772 151.441 442.93 151.858 442.983 152.164C443.037 152.469 442.542 153.168 442.712 153.28C442.982 153.458 443.621 152.292 443.55 151.934Z" fill="#DFDBDB"/>
<path d="M407.836 139.547C407.463 139.937 407.234 140.456 407.234 141.027C407.234 142.241 408.259 143.224 409.522 143.224C410.786 143.224 411.811 142.24 411.811 141.027C411.811 140.677 411.723 140.33 411.555 140.019C411.378 139.692 411.087 139.427 410.859 139.133C410.681 138.903 410.499 138.675 410.32 138.446C410.052 138.105 409.784 137.764 409.516 137.422V137.403L409.508 137.412L409.501 137.403V137.422C409.501 137.422 407.835 139.545 407.836 139.547Z" fill="#FFF8F3"/>
<path d="M415.283 139.547C414.911 139.937 414.682 140.456 414.682 141.027C414.682 142.241 415.706 143.224 416.97 143.224C418.234 143.224 419.258 142.24 419.258 141.027C419.258 140.677 419.17 140.33 419.002 140.019C418.825 139.692 418.534 139.427 418.306 139.133C418.128 138.903 417.947 138.675 417.767 138.446C417.499 138.105 417.231 137.764 416.963 137.422V137.403L416.956 137.412L416.948 137.403V137.422C416.948 137.422 415.283 139.545 415.283 139.547Z" fill="#FFF8F3"/>
<path d="M422.731 139.547C422.359 139.937 422.13 140.456 422.13 141.027C422.13 142.241 423.154 143.224 424.418 143.224C425.682 143.224 426.706 142.24 426.706 141.027C426.706 140.677 426.618 140.33 426.45 140.019C426.273 139.692 425.982 139.427 425.754 139.133C425.576 138.903 425.395 138.675 425.215 138.446C424.947 138.105 424.679 137.764 424.411 137.422V137.403L424.404 137.412L424.396 137.403V137.422C424.396 137.422 422.73 139.545 422.731 139.547Z" fill="#FFF8F3"/>
<path d="M216.776 138.812C217.51 135.827 215.585 132.836 212.475 132.131C209.366 131.426 206.25 133.274 205.515 136.259C204.781 139.245 206.707 142.236 209.816 142.941C212.926 143.646 216.042 141.797 216.776 138.812Z" fill="#312D33"/>
<path d="M212.945 157.951C210.691 156.984 209.768 151.128 210.02 148.77L205.16 152.523C205.352 154.136 204.441 155.362 203.626 156.785C203.201 157.526 202.686 158.302 201.861 158.599C203.211 160.073 205.388 160.695 207.431 160.588C209.473 160.481 211.77 159.558 212.945 157.951Z" fill="#AE4E3E"/>
<path d="M203.69 156.675C204.688 156.158 205.541 155.509 206.21 154.704C206.771 154.029 207.268 153.192 207.728 152.326L205.161 152.523C205.347 154.094 204.488 155.299 203.69 156.675Z" fill="#312D33"/>
<path d="M205.526 153.712C202.728 153.927 200.257 151.906 200.033 149.221L199.442 142.142C199.218 139.457 201.324 137.084 204.121 136.869C206.918 136.654 209.39 138.675 209.614 141.361L210.204 148.439C210.428 151.124 208.323 153.497 205.526 153.712Z" fill="#AE4E3E"/>
<path d="M205.414 147.786H199.631L199.743 149.088C199.955 151.562 202.023 153.616 204.67 153.781C205.673 153.844 206.61 153.642 207.424 153.254V149.666C207.424 148.628 206.524 147.786 205.414 147.786Z" fill="#DFDBDB"/>
<path d="M208.027 144.466C207.316 143.465 207.727 142.073 207.664 140.935C207.579 139.423 205.78 138.786 204.547 139.522C203.53 140.129 202.469 140.601 201.261 140.677C200.569 140.72 200.024 140.546 199.661 140.291C200.269 138.444 201.994 137.033 204.12 136.869C206.918 136.654 209.389 138.675 209.613 141.361L209.983 145.798C209.205 145.569 208.492 145.121 208.027 144.466Z" fill="#312D33"/>
<path d="M213.005 146.404C213.092 147.443 212.285 148.352 211.203 148.435C210.122 148.518 209.174 147.744 209.088 146.706C209.001 145.667 209.808 144.758 210.889 144.675C211.971 144.592 212.918 145.366 213.005 146.404Z" fill="#AE4E3E"/>
<path d="M197.919 164.418C196.164 164.664 194.319 166.267 193.405 167.497C189.991 172.093 191.187 175.705 185.53 178.891C183.918 179.798 181.344 181.348 179.895 182.446C178.871 183.223 168.698 191.68 166.235 194.3C166.235 194.494 168.394 195.66 168.394 195.531C174.42 194.236 189.529 184.054 190.799 182.958C196.539 178.004 198.333 174.033 199.601 167.227C199.914 165.547 199.925 164.136 197.919 164.418Z" fill="#AE4E3E"/>
<path d="M197.088 176.104C196.716 175.773 195.717 175.169 195.349 174.842C194.447 174.039 193.488 173.3 192.581 172.504C191.952 171.952 191.354 171.358 190.952 170.648C191.609 168.802 192.231 166.806 193.684 164.621C194.614 163.222 196.502 161.406 198.31 161.142C200.377 160.84 201.06 164.194 200.755 166.113C200.011 170.795 199.01 172.832 197.088 176.104Z" fill="#312D33"/>
<path d="M219.514 171.926C219.071 172.065 222.212 189.56 221.763 189.685C218.204 190.681 214.528 191.233 210.838 191.523C207.094 191.817 203.52 191.788 199.875 190.814C199.616 190.745 195.77 173.31 195.513 173.234C194.261 171.195 192.602 169.438 192.912 166.638C193.259 163.504 195.57 160.748 198.904 159.408C200.021 158.959 201.178 158.586 202.359 158.289C205.608 157.472 209.046 157.238 212.379 157.611C212.686 157.646 212.993 157.685 213.299 157.73C213.734 157.794 214.165 157.868 214.594 157.952C217.076 158.443 219.656 159.48 221.107 161.167C221.135 161.199 221.163 161.231 221.19 161.265C221.631 161.801 221.958 162.402 222.135 163.069C222.414 164.117 222.282 165.151 221.957 166.18C221.357 168.084 220.092 169.975 219.514 171.926Z" fill="#312D33"/>
<path d="M202.358 162.131C203.759 164.028 206.485 164.861 208.721 163.859C210.73 162.958 211.982 160.933 212.771 159.028C212.947 158.602 213.106 158.166 213.248 157.724C212.959 157.682 212.669 157.644 212.379 157.612C209.046 157.239 205.608 157.473 202.36 158.289C201.912 158.402 201.47 158.528 201.031 158.663C201.194 159.905 201.604 161.11 202.358 162.131Z" fill="#DFDBDB"/>
<path d="M218.813 164.194C220.78 164.469 222.848 166.266 223.873 167.646C227.7 172.797 226.359 176.846 232.7 180.416C234.506 181.434 237.392 183.171 239.016 184.402C240.163 185.272 244.13 191.148 246.89 194.084C246.269 195.097 246.238 195.225 245.483 196.151C239.137 192.984 228.217 186.204 226.794 184.975C220.359 179.423 218.349 174.971 216.928 167.343C216.577 165.459 216.565 163.879 218.813 164.194Z" fill="#AE4E3E"/>
<path d="M219.745 177.292C220.162 176.922 221.281 176.244 221.694 175.878C222.705 174.978 223.779 174.15 224.796 173.257C225.501 172.638 226.172 171.973 226.623 171.177C225.886 169.108 225.189 166.87 223.56 164.421C222.518 162.853 220.425 160.467 218.375 160.522C216.288 160.578 214.347 163.348 214.977 166.268C216.097 171.467 217.59 173.625 219.745 177.292Z" fill="#312D33"/>
<path d="M211.362 148.373C211.362 148.982 210.847 149.476 210.213 149.476C209.578 149.476 209.063 148.982 209.063 148.373C209.063 147.763 209.578 147.269 210.213 147.269C210.847 147.269 211.362 147.763 211.362 148.373Z" fill="#DFDBDB"/>
<path d="M210.434 141.835L205.414 147.786" stroke="#DFDBDB" stroke-width="1.6882" stroke-miterlimit="10" stroke-linecap="round" stroke-linejoin="round"/>
<path d="M207.365 152.32L210.022 150.903" stroke="#DFDBDB" stroke-width="1.6882" stroke-miterlimit="10" stroke-linecap="round" stroke-linejoin="round"/>
<path d="M167.265 194.033C166.654 194.066 166.082 193.778 165.521 193.546C164.618 193.173 163.615 192.926 162.654 193.125C161.696 193.323 160.879 193.952 160.305 194.715C159.731 195.478 159.375 196.369 159.072 197.264H170.346C170.115 195.78 168.825 193.947 167.265 194.033Z" fill="#AE4E3E"/>
<path d="M247.468 193.951C248.078 193.985 248.65 193.697 249.212 193.465C250.114 193.091 251.118 192.844 252.078 193.043C253.036 193.242 253.853 193.871 254.427 194.634C255.001 195.396 255.357 196.288 255.661 197.182H244.386C244.618 195.698 245.907 193.865 247.468 193.951Z" fill="#AE4E3E"/>
<path d="M370.158 136.722H343.559V138.424H370.158V136.722Z" fill="#FFF8F3"/>
<path d="M370.631 141.715H344.032V143.418H370.631V141.715Z" fill="#FFF8F3"/>
<path d="M364.839 211.317V186.945C364.839 184.334 362.614 182.198 359.894 182.198H338.097C335.377 182.198 333.152 184.334 333.152 186.945V211.317H364.839Z" fill="#AEE3EC"/>
<path d="M363.485 210.072V187.783C363.485 185.395 361.45 183.442 358.963 183.442H339.028C336.541 183.442 334.506 185.395 334.506 187.783V210.072H363.485Z" stroke="#472A1C" stroke-width="0.6454" stroke-miterlimit="10" stroke-linecap="round" stroke-linejoin="round"/>
<path d="M355.533 206.763H343C341.215 206.763 339.754 205.361 339.754 203.647C339.754 201.933 341.215 200.531 343 200.531H355.533C357.318 200.531 358.779 201.933 358.779 203.647C358.779 205.36 357.318 206.763 355.533 206.763Z" fill="#204EA5"/>
<path d="M367.141 214.697H329.766C328.053 214.697 326.652 213.351 326.652 211.707C326.652 210.063 328.053 208.717 329.766 208.717H367.141C368.854 208.717 370.256 210.063 370.256 211.707C370.256 213.351 368.854 214.697 367.141 214.697Z" fill="#8DDAE2"/>
<path d="M332.069 239.136V214.957H365.517V239.103" stroke="#204EA5" stroke-width="2.7779" stroke-miterlimit="10" stroke-linecap="round" stroke-linejoin="round"/>
<path d="M406.913 211.317V186.945C406.913 184.334 404.688 182.198 401.968 182.198H380.171C377.451 182.198 375.226 184.334 375.226 186.945V211.317H406.913Z" fill="#AEE3EC"/>
<path d="M405.559 210.072V187.783C405.559 185.395 403.524 183.442 401.037 183.442H381.102C378.615 183.442 376.58 185.395 376.58 187.783V210.072H405.559Z" stroke="#472A1C" stroke-width="0.6454" stroke-miterlimit="10" stroke-linecap="round" stroke-linejoin="round"/>
<path d="M397.607 206.763H385.074C383.289 206.763 381.828 205.361 381.828 203.647C381.828 201.933 383.289 200.531 385.074 200.531H397.607C399.392 200.531 400.852 201.933 400.852 203.647C400.852 205.36 399.392 206.763 397.607 206.763Z" fill="#204EA5"/>
<path d="M409.215 214.697H371.84C370.127 214.697 368.726 213.351 368.726 211.707C368.726 210.063 370.127 208.717 371.84 208.717H409.215C410.928 208.717 412.33 210.063 412.33 211.707C412.33 213.351 410.929 214.697 409.215 214.697Z" fill="#8DDAE2"/>
<path d="M374.143 239.136V214.957H407.59V239.103" stroke="#204EA5" stroke-width="2.7779" stroke-miterlimit="10" stroke-linecap="round" stroke-linejoin="round"/>
<path d="M448.988 211.317V186.945C448.988 184.334 446.762 182.198 444.043 182.198H422.245C419.525 182.198 417.3 184.334 417.3 186.945V211.317H448.988Z" fill="#AEE3EC"/>
<path d="M447.633 210.072V187.783C447.633 185.395 445.598 183.442 443.111 183.442H423.176C420.689 183.442 418.653 185.395 418.653 187.783V210.072H447.633Z" stroke="#472A1C" stroke-width="0.6454" stroke-miterlimit="10" stroke-linecap="round" stroke-linejoin="round"/>
<path d="M439.681 206.763H427.148C425.363 206.763 423.902 205.361 423.902 203.647C423.902 201.933 425.362 200.531 427.148 200.531H439.681C441.466 200.531 442.926 201.933 442.926 203.647C442.926 205.36 441.466 206.763 439.681 206.763Z" fill="#204EA5"/>
<path d="M451.29 214.697H413.915C412.202 214.697 410.8 213.351 410.8 211.707C410.8 210.063 412.202 208.717 413.915 208.717H451.29C453.002 208.717 454.404 210.063 454.404 211.707C454.404 213.351 453.002 214.697 451.29 214.697Z" fill="#8DDAE2"/>
<path d="M416.217 239.136V214.957H449.664V239.103" stroke="#204EA5" stroke-width="2.7779" stroke-miterlimit="10" stroke-linecap="round" stroke-linejoin="round"/>
<path d="M296.871 273.108C299.984 273.108 302.507 275.53 302.507 278.518C302.507 281.506 299.984 283.928 296.871 283.928C293.758 283.928 291.235 281.506 291.235 278.518C291.235 275.53 293.758 273.108 296.871 273.108ZM296.871 271.805C293.015 271.805 289.878 274.816 289.878 278.518C289.878 282.219 293.015 285.23 296.871 285.23C300.726 285.23 303.864 282.219 303.864 278.518C303.863 274.816 300.726 271.805 296.871 271.805Z" fill="#312D33" stroke="#312D33" stroke-width="3.6084" stroke-miterlimit="10" stroke-linecap="round" stroke-linejoin="round"/>
<path d="M301.755 278.771C301.904 276.185 299.841 273.972 297.147 273.828C294.452 273.685 292.147 275.666 291.998 278.252C291.848 280.839 293.912 283.052 296.606 283.195C299.301 283.339 301.606 281.358 301.755 278.771Z" fill="#554D57"/>
<path d="M296.871 274.547C299.152 274.547 301.008 276.328 301.008 278.518C301.008 280.708 299.152 282.489 296.871 282.489C294.59 282.489 292.734 280.708 292.734 278.518C292.734 276.328 294.59 274.547 296.871 274.547ZM296.871 273.108C293.758 273.108 291.235 275.53 291.235 278.518C291.235 281.506 293.758 283.928 296.871 283.928C299.984 283.928 302.507 281.506 302.507 278.518C302.507 275.53 299.983 273.108 296.871 273.108Z" fill="#D4C4D6"/>
<path d="M298.771 278.611C298.771 279.646 297.897 280.486 296.819 280.486C295.74 280.486 294.866 279.646 294.866 278.611C294.866 277.575 295.74 276.736 296.819 276.736C297.897 276.736 298.771 277.575 298.771 278.611Z" fill="#554D57"/>
<path d="M296.871 274.547C299.152 274.547 301.008 276.328 301.008 278.518C301.008 280.708 299.152 282.489 296.871 282.489C294.59 282.489 292.734 280.708 292.734 278.518C292.734 276.328 294.59 274.547 296.871 274.547ZM296.871 273.108C293.758 273.108 291.235 275.53 291.235 278.518C291.235 281.506 293.758 283.928 296.871 283.928C299.984 283.928 302.507 281.506 302.507 278.518C302.507 275.53 299.983 273.108 296.871 273.108Z" fill="#D4C4D6"/>
<path d="M298.771 278.611C298.771 279.646 297.897 280.486 296.819 280.486C295.74 280.486 294.866 279.646 294.866 278.611C294.866 277.575 295.74 276.736 296.819 276.736C297.897 276.736 298.771 277.575 298.771 278.611Z" fill="#D4C4D6"/>
<path d="M380.568 265.757C380.903 267.971 379.759 270.344 377.855 271.383C376.564 272.086 375.06 272.191 373.657 272.599C370.919 273.394 368.534 275.429 367.244 278.07H385.772V265.585L380.568 265.757Z" fill="#DFDBDB"/>
<path d="M373.657 272.599C375.06 272.191 376.564 272.087 377.855 271.383C378.958 270.781 379.807 269.731 380.26 268.523C380.628 269.072 380.984 269.63 381.379 270.158C381.761 270.67 382.189 271.166 382.722 271.512C383.257 271.858 383.872 271.986 384.493 271.869C384.95 271.783 385.377 271.576 385.772 271.314V278.069H367.244C368.534 275.429 370.919 273.394 373.657 272.599Z" fill="#DFDBDB"/>
<path d="M367.701 279.095H385.66C386.195 279.095 386.633 278.675 386.633 278.162V278.083C386.633 277.569 386.195 277.149 385.66 277.149H367.701C367.166 277.149 366.729 277.569 366.729 278.083V278.162C366.729 278.675 367.166 279.095 367.701 279.095Z" fill="#DFDBDB"/>
<path d="M406.726 258.399C408.627 259.444 409.764 261.821 409.421 264.034C409.188 265.534 408.368 266.852 407.841 268.268C406.812 271.031 406.945 274.241 408.2 276.901L419.298 261.426L409.712 253.949L406.726 258.399Z" fill="#DFDBDB"/>
<path d="M407.841 268.268C408.368 266.852 409.188 265.533 409.421 264.034C409.62 262.752 409.321 261.414 408.666 260.313C409.308 260.333 409.949 260.37 410.592 260.357C411.214 260.345 411.851 260.285 412.435 260.046C413.023 259.807 413.489 259.37 413.771 258.782C413.978 258.348 414.076 257.868 414.111 257.38L419.298 261.427L408.201 276.901C406.945 274.241 406.811 271.031 407.841 268.268Z" fill="#DFDBDB"/>
<path d="M409.238 277.166L420.042 262.101C420.349 261.672 420.264 261.059 419.853 260.739C419.442 260.418 418.855 260.507 418.547 260.935L407.744 276C407.436 276.429 407.521 277.042 407.932 277.362C408.343 277.683 408.931 277.594 409.238 277.166Z" fill="#DFDBDB"/>
<path d="M398.541 148.587C398.329 149.664 397.539 153.089 397.507 154.185C397.459 155.825 397.679 157.614 398.871 158.79C398.132 159.765 397.011 160.566 395.793 160.865C394.576 161.163 393.252 161.04 392.116 160.523C391.807 160.382 391.512 160.214 391.217 160.046C390.856 159.839 390.494 159.633 390.133 159.426C391.699 156.837 393.037 153.972 392.618 151.004C393.4 150.865 394.506 150.548 395.288 150.409C395.627 150.348 395.97 150.287 396.315 150.301C396.861 150.324 398.001 148.675 398.541 148.587Z" fill="#F3725F"/>
<path d="M391.82 156.161C391.362 157.287 390.767 158.379 390.133 159.426C390.494 159.633 390.856 159.839 391.217 160.046C391.512 160.214 391.807 160.382 392.116 160.523C393.252 161.04 394.576 161.163 395.793 160.864C397.011 160.566 399.441 162.05 400.18 161.074C399.461 160.365 397.787 157.149 397.621 156.161H391.82Z" fill="#F3725F"/>
<path d="M395.224 150.421C395.524 150.365 395.243 154.576 395.146 154.956C394.515 157.418 393.147 158.55 390.522 158.767C390.568 158.687 390.614 158.607 390.659 158.526C390.691 158.47 390.722 158.414 390.754 158.357C390.81 158.257 390.864 158.156 390.918 158.055C390.948 158 390.978 157.944 391.008 157.889C391.072 157.766 391.135 157.643 391.198 157.52C391.214 157.488 391.231 157.455 391.248 157.422C391.324 157.27 391.397 157.116 391.47 156.962C391.494 156.911 391.517 156.859 391.54 156.808C391.588 156.701 391.636 156.595 391.682 156.488C391.708 156.427 391.734 156.366 391.76 156.304C392.471 154.602 392.875 152.823 392.619 151.004C393.379 150.868 394.446 150.566 395.224 150.421Z" fill="#332C33"/>
<path d="M398.641 158.541C398.714 158.626 398.789 158.71 398.87 158.79C398.257 159.6 397.38 160.288 396.403 160.67C397.294 160.06 398.035 159.34 398.641 158.541Z" fill="#332C33"/>
<path d="M390.135 178.66L396.385 178.323C401.343 178.055 405.629 181.732 405.907 186.492L406.567 197.767C406.527 197.882 406.504 198.009 406.504 198.151C406.498 199.866 407.103 199.495 407.215 199.479C407.215 199.479 407.407 202.641 405.794 207.155C404.724 210.149 401.917 212.293 398.63 212.546C398.55 212.553 398.469 212.558 398.388 212.562L392.138 212.899C387.386 213.156 383.057 206.483 382.461 201.759C382.481 201.562 382.337 199.864 382.255 198.581C382.255 198.581 381.616 187.972 381.625 187.802C381.347 183.041 385.176 178.928 390.135 178.66Z" fill="#332C33"/>
<path d="M378.992 181.305C379.078 182.862 379.195 184.417 379.335 185.97C379.429 187.012 379.527 188.05 379.677 189.083C380.006 190.741 380.411 192.387 380.797 194.033C380.968 194.659 381.141 195.285 381.309 195.912C381.518 196.698 381.693 197.499 381.9 198.291C382.005 198.463 382.127 198.625 382.268 198.77C382.34 198.846 382.417 198.917 382.5 198.984C382.798 199.228 383.206 199.344 383.568 199.469C383.999 199.618 384.437 199.747 384.879 199.857C386.054 200.148 387.253 200.264 388.459 200.355C389.729 200.451 391.003 200.497 392.277 200.509C392.928 200.514 393.58 200.511 394.23 200.5C396.094 200.468 397.955 200.376 399.8 200.267C400.175 200.245 405.028 199.729 406.672 199.545C406.856 199.524 407.001 199.507 407.094 199.496C407.097 199.496 407.101 199.495 407.104 199.495L407.137 199.491C407.188 199.485 407.215 199.481 407.215 199.479C407.336 197.84 407.584 195.958 407.909 193.949C408.164 192.376 408.465 190.725 408.787 189.05C408.871 188.611 408.956 188.172 409.044 187.732C409.045 187.726 409.046 187.72 409.047 187.714C409.652 184.637 410.307 181.53 410.854 178.725C411.048 177.732 411.228 176.778 411.388 175.876C411.415 175.727 411.441 175.578 411.467 175.431C411.47 175.409 411.474 175.386 411.478 175.364C412.046 172.133 413.334 168.021 412.623 164.766C412.119 162.457 409.671 161.105 407.499 160.172C407.478 160.163 407.458 160.154 407.437 160.145C407.196 160.041 406.957 159.944 406.725 159.849C405.269 159.259 403.66 158.96 402.024 158.824C401.699 158.798 401.373 158.777 401.047 158.761C401.025 158.76 401.004 158.76 400.982 158.759C400.255 158.726 399.529 158.72 398.812 158.73C398.812 158.73 398.812 158.73 398.811 158.73C398.55 158.734 398.29 158.74 398.032 158.746C395.421 158.819 392.826 159.096 390.223 159.277C389.809 159.305 389.394 159.332 388.98 159.354C388.656 159.371 388.342 159.385 388.038 159.396C387.962 159.399 387.886 159.401 387.81 159.404C387.778 159.405 387.747 159.406 387.715 159.407C387.624 159.41 387.533 159.413 387.444 159.416C387.287 159.421 387.133 159.427 386.981 159.432C386.199 159.461 385.48 159.499 384.808 159.605C384.028 159.939 383.229 160.236 382.491 160.652C381.986 160.935 381.536 161.263 381.182 161.701C380.779 162.201 380.516 162.817 380.308 163.411C379.853 164.708 379.645 166.079 379.47 167.424C379.279 168.889 379.089 170.35 378.988 171.823C378.772 174.979 378.82 178.149 378.992 181.305Z" fill="#4E6E94"/>
<path d="M378.992 181.305C379.078 182.862 379.195 184.417 379.335 185.97C379.429 187.012 379.527 188.05 379.677 189.083C380.006 190.741 380.411 192.387 380.797 194.033C380.968 194.659 381.141 195.285 381.309 195.912C381.518 196.698 381.693 197.499 381.9 198.291C382.005 198.463 382.127 198.625 382.268 198.77C382.34 198.846 382.417 198.917 382.5 198.984C382.798 199.228 383.206 199.344 383.568 199.469C383.999 199.618 384.437 199.747 384.879 199.857C386.054 200.148 387.253 200.264 388.459 200.355C389.729 200.451 391.003 200.497 392.277 200.509C392.928 200.514 393.58 200.511 394.23 200.5C396.094 200.468 397.955 200.376 399.8 200.267C400.175 200.245 405.028 199.729 406.672 199.545C406.856 199.524 407.001 199.507 407.094 199.496C407.097 199.496 407.101 199.495 407.104 199.495L407.137 199.491C407.188 199.485 407.215 199.481 407.215 199.479C407.336 197.84 407.584 195.958 407.909 193.949C408.164 192.376 408.465 190.725 408.787 189.05C408.871 188.611 408.956 188.172 409.044 187.732C409.045 187.726 409.046 187.72 409.047 187.714C409.652 184.637 410.307 181.53 410.854 178.725C411.048 177.732 411.228 176.778 411.388 175.876C411.415 175.727 411.441 175.578 411.467 175.431C411.47 175.409 411.474 175.386 411.478 175.364C412.046 172.133 413.334 168.021 412.623 164.766C412.119 162.457 409.671 161.105 407.499 160.172C407.478 160.163 407.458 160.154 407.437 160.145C407.196 160.041 406.957 159.944 406.725 159.849C405.269 159.259 403.66 158.96 402.024 158.824C401.699 158.798 401.373 158.777 401.047 158.761C401.025 158.76 401.004 158.76 400.982 158.759C400.255 158.726 399.529 158.72 398.812 158.73C398.812 158.73 398.812 158.73 398.811 158.73C398.55 158.734 398.29 158.74 398.032 158.746C395.421 158.819 392.826 159.096 390.223 159.277C389.809 159.305 389.394 159.332 388.98 159.354C388.656 159.371 388.342 159.385 388.038 159.396C387.962 159.399 387.886 159.401 387.81 159.404C387.778 159.405 387.747 159.406 387.715 159.407C387.624 159.41 387.533 159.413 387.444 159.416C387.287 159.421 387.133 159.427 386.981 159.432C386.199 159.461 385.48 159.499 384.808 159.605C384.028 159.939 383.229 160.236 382.491 160.652C381.986 160.935 381.536 161.263 381.182 161.701C380.779 162.201 380.516 162.817 380.308 163.411C379.853 164.708 379.645 166.079 379.47 167.424C379.279 168.889 379.089 170.35 378.988 171.823C378.772 174.979 378.82 178.149 378.992 181.305Z" fill="#EA9A43"/>
<path d="M411.477 175.363C411.474 175.387 411.469 175.41 411.466 175.431C411.442 175.578 411.415 175.727 411.388 175.874C411.228 176.778 411.047 177.733 410.852 178.724C410.306 181.53 409.652 184.637 409.046 187.715C409.046 187.72 409.044 187.725 409.044 187.733C408.957 188.171 408.871 188.61 408.787 189.048C408.465 190.725 408.162 192.376 407.908 193.948C407.584 195.957 407.335 197.839 407.216 199.479C407.216 199.479 407.189 199.485 407.138 199.49L407.102 199.495H407.094C407 199.508 406.857 199.524 406.673 199.544C405.029 199.728 400.176 200.245 399.8 200.266C397.956 200.375 396.093 200.468 394.231 200.499C393.579 200.51 392.927 200.512 392.276 200.507C391.003 200.496 389.729 200.45 388.459 200.354C387.253 200.263 386.055 200.146 384.879 199.856C384.435 199.746 383.998 199.617 383.568 199.469C383.205 199.344 382.797 199.228 382.5 198.983C382.416 198.916 382.34 198.846 382.267 198.768C382.127 198.622 382.005 198.462 381.9 198.291C381.694 197.499 381.518 196.697 381.31 195.911C381.143 195.283 380.969 194.659 380.796 194.031C380.412 192.386 380.007 190.74 379.677 189.082C379.529 188.049 379.428 187.011 379.337 185.97C379.196 184.415 379.077 182.86 378.993 181.303C378.82 178.147 378.772 174.979 378.988 171.822C379.091 170.351 379.28 168.889 379.472 167.423C379.645 166.079 379.853 164.708 380.307 163.41C380.515 162.819 380.78 162.201 381.183 161.702C381.537 161.264 381.986 160.934 382.491 160.651C383.229 160.236 384.027 159.938 384.808 159.606C385.425 159.507 386.085 159.468 386.798 159.44C386.041 165.827 387.62 172.484 391.351 177.831C393.714 170.812 397.732 164.314 402.98 158.926C404.285 159.086 405.554 159.375 406.724 159.85C406.956 159.943 407.194 160.042 407.438 160.145C407.457 160.153 407.478 160.161 407.497 160.171C409.671 161.105 412.118 162.455 412.623 164.765C413.334 168.02 412.047 172.135 411.477 175.363Z" fill="#FFF8F3"/>
<path d="M356.518 185.609C358.781 184.456 361.321 183.901 363.547 182.686C371.361 178.422 372.889 170.575 377.841 163.944C379.167 162.168 381.766 159.921 384.124 159.725C386.82 159.5 386.681 161.639 386.116 164.157C383.826 174.358 378.176 183.933 370.094 190.872C367.528 193.075 364.689 195.045 361.497 196.166C359.708 196.794 357.771 197.146 355.938 196.769C354.106 196.392 352.402 195.183 351.824 193.438C350.802 190.357 353.532 187.129 356.518 185.609Z" fill="#FFF8F3"/>
<path d="M348.121 198.102C347.684 197.649 349.821 195.906 349.821 195.906C349.821 195.906 346.89 198.004 346.499 197.72C345.88 197.272 349.251 194.938 349.251 194.938C349.251 194.938 345.516 197.387 345.143 196.644C344.77 195.901 348.745 193.891 348.745 193.891C348.745 193.891 344.888 195.554 344.682 194.865C344.476 194.176 349.535 192.22 349.535 192.22C349.535 192.22 346.921 191.383 347.06 190.847C347.294 189.943 352.923 191.492 352.923 191.492L354.529 194.223C354.529 194.223 348.558 198.554 348.121 198.102Z" fill="#F3725F"/>
<path d="M395.202 143.321C393.713 143.627 392.895 145.104 393.108 146.428C393.321 147.752 394.327 148.91 395.463 149.849C396.034 148.236 396.437 146.814 397.008 145.201C397.222 144.594 397.369 143.801 396.758 143.415C396.415 143.198 395.605 143.238 395.202 143.321Z" fill="#2D1A14"/>
<path d="M388.167 150.87C388.169 150.921 388.172 150.972 388.176 151.023C388.178 151.049 388.181 151.075 388.183 151.101C388.185 151.117 388.186 151.133 388.188 151.149C388.193 151.199 388.199 151.247 388.206 151.296C388.208 151.31 388.21 151.325 388.212 151.339C388.223 151.41 388.235 151.481 388.249 151.55C388.263 151.624 388.28 151.698 388.298 151.771C388.304 151.798 388.311 151.823 388.318 151.849C388.322 151.864 388.327 151.88 388.331 151.895C388.348 151.957 388.367 152.019 388.387 152.08C388.436 152.228 388.492 152.372 388.555 152.514C388.57 152.548 388.586 152.582 388.601 152.616C388.746 152.919 388.922 153.206 389.127 153.471C389.172 153.529 389.217 153.585 389.264 153.64C389.289 153.67 389.315 153.699 389.341 153.729C389.384 153.777 389.428 153.824 389.473 153.871C389.584 153.985 389.7 154.094 389.821 154.198C389.878 154.246 389.935 154.293 389.994 154.338C390.235 154.525 390.494 154.69 390.768 154.831C390.974 154.937 391.19 155.029 391.413 155.106C391.461 155.123 391.511 155.139 391.56 155.155C391.595 155.166 391.63 155.177 391.666 155.186C391.684 155.192 391.704 155.197 391.724 155.203C391.742 155.208 391.76 155.213 391.777 155.217C391.835 155.233 391.892 155.247 391.951 155.26C392.295 155.338 392.653 155.38 393.021 155.383C393.102 155.384 393.182 155.383 393.261 155.38C394.159 155.345 394.997 155.076 395.71 154.634C397.053 153.802 397.953 152.359 397.968 150.719L397.979 149.606L398.01 146.332L398.019 145.308L398.033 143.895C398.033 143.817 398.032 143.74 398.029 143.663C398.027 143.625 398.025 143.587 398.023 143.549C398.021 143.519 398.019 143.489 398.015 143.459C398.013 143.43 398.01 143.399 398.007 143.369C398.006 143.362 398.005 143.354 398.004 143.347C398.002 143.329 398 143.311 397.997 143.292C397.995 143.27 397.992 143.249 397.989 143.226C397.987 143.213 397.986 143.2 397.983 143.187C397.979 143.154 397.973 143.122 397.968 143.09C397.963 143.063 397.958 143.036 397.953 143.009C397.95 142.993 397.947 142.978 397.944 142.962C397.931 142.899 397.917 142.837 397.902 142.775C397.893 142.741 397.884 142.705 397.875 142.671C397.866 142.639 397.857 142.607 397.848 142.576C397.839 142.544 397.829 142.513 397.819 142.482C397.819 142.482 397.819 142.48 397.818 142.48C397.808 142.449 397.798 142.418 397.787 142.387C397.776 142.356 397.765 142.325 397.754 142.294C397.743 142.263 397.731 142.232 397.719 142.202C397.694 142.14 397.668 142.079 397.641 142.018C397.636 142.006 397.63 141.995 397.625 141.983C397.602 141.933 397.579 141.884 397.555 141.835C397.549 141.823 397.543 141.812 397.537 141.8C397.511 141.75 397.485 141.7 397.457 141.65C397.453 141.642 397.448 141.634 397.444 141.626C396.621 140.166 395.017 139.162 393.174 139.146C391.101 139.128 389.305 140.365 388.575 142.114C388.356 142.64 388.233 143.212 388.227 143.81L388.163 150.634C388.163 150.713 388.164 150.791 388.167 150.87Z" fill="#F3725F"/>
<path d="M388.167 150.87C388.169 150.921 388.172 150.972 388.176 151.023C388.178 151.049 388.181 151.075 388.183 151.101C388.185 151.117 388.186 151.133 388.188 151.149C388.193 151.199 388.199 151.247 388.206 151.296C388.208 151.31 388.21 151.325 388.212 151.339C388.223 151.41 388.235 151.481 388.249 151.55C388.263 151.624 388.28 151.698 388.298 151.771C388.304 151.798 388.311 151.823 388.318 151.849C388.322 151.864 388.327 151.88 388.331 151.895C388.348 151.957 388.367 152.019 388.387 152.08C388.436 152.228 388.492 152.372 388.555 152.514C388.57 152.548 388.586 152.582 388.601 152.616C388.746 152.919 388.922 153.206 389.127 153.471C389.172 153.529 389.217 153.585 389.264 153.64C389.289 153.67 389.315 153.699 389.341 153.729C389.384 153.777 389.428 153.824 389.473 153.871C389.584 153.985 389.7 154.094 389.821 154.198C389.878 154.246 389.935 154.293 389.994 154.338C390.235 154.525 390.494 154.69 390.768 154.831C390.974 154.937 391.19 155.029 391.413 155.106C391.461 155.123 391.511 155.139 391.56 155.155C391.595 155.166 391.63 155.177 391.666 155.186C391.684 155.192 391.704 155.197 391.724 155.203C391.742 155.208 391.76 155.213 391.777 155.217C391.835 155.233 391.892 155.247 391.951 155.26C392.295 155.338 392.653 155.38 393.021 155.383C393.102 155.384 393.182 155.383 393.261 155.38C394.159 155.345 394.997 155.076 395.71 154.634C397.053 153.802 397.953 152.359 397.968 150.719L397.979 149.606L398.01 146.332L398.019 145.308L398.033 143.895C398.033 143.817 398.032 143.74 398.029 143.663C398.027 143.625 398.025 143.587 398.023 143.549C398.021 143.519 398.019 143.489 398.015 143.459C398.013 143.43 398.01 143.399 398.007 143.369C398.006 143.362 398.005 143.354 398.004 143.347C398.002 143.329 398 143.311 397.997 143.292C397.995 143.27 397.992 143.249 397.989 143.226C397.987 143.213 397.986 143.2 397.983 143.187C397.979 143.154 397.973 143.122 397.968 143.09C397.963 143.063 397.958 143.036 397.953 143.009C397.95 142.993 397.947 142.978 397.944 142.962C397.931 142.899 397.917 142.837 397.902 142.775C397.893 142.741 397.884 142.705 397.875 142.671C397.866 142.639 397.857 142.607 397.848 142.576C397.839 142.544 397.829 142.513 397.819 142.482C397.819 142.482 397.819 142.48 397.818 142.48C397.808 142.449 397.798 142.418 397.787 142.387C397.776 142.356 397.765 142.325 397.754 142.294C397.743 142.263 397.731 142.232 397.719 142.202C397.694 142.14 397.668 142.079 397.641 142.018C397.636 142.006 397.63 141.995 397.625 141.983C397.602 141.933 397.579 141.884 397.555 141.835C397.549 141.823 397.543 141.812 397.537 141.8C397.511 141.75 397.485 141.7 397.457 141.65C397.453 141.642 397.448 141.634 397.444 141.626C396.621 140.166 395.017 139.162 393.174 139.146C391.101 139.128 389.305 140.365 388.575 142.114C388.356 142.64 388.233 143.212 388.227 143.81L388.163 150.634C388.163 150.713 388.164 150.791 388.167 150.87Z" fill="#F3725F"/>
<path d="M391.862 140.454C391.909 140.338 392.081 140.324 392.122 140.454C392.804 142.58 394.227 144.347 396.343 145.309C396.882 145.554 397.442 145.741 398.014 145.881L398.02 145.308L398.033 143.895C398.034 143.817 398.032 143.74 398.029 143.663C398.028 143.625 398.025 143.587 398.023 143.549C398.021 143.518 398.019 143.489 398.016 143.459C398.014 143.429 398.01 143.399 398.007 143.369C398.007 143.362 398.006 143.354 398.004 143.347C398.003 143.329 398.001 143.311 397.998 143.292C397.995 143.27 397.993 143.249 397.989 143.226C397.988 143.213 397.986 143.2 397.984 143.187C397.979 143.154 397.974 143.122 397.968 143.09C397.964 143.063 397.959 143.036 397.954 143.009C397.951 142.993 397.948 142.977 397.944 142.961C397.932 142.898 397.918 142.837 397.902 142.775C397.895 142.74 397.885 142.705 397.876 142.67C397.867 142.639 397.858 142.607 397.848 142.575C397.84 142.544 397.829 142.513 397.82 142.482C397.819 142.481 397.819 142.48 397.819 142.479C397.808 142.448 397.798 142.418 397.788 142.386C397.777 142.355 397.766 142.324 397.755 142.293C397.743 142.263 397.732 142.232 397.72 142.202C397.695 142.14 397.669 142.078 397.642 142.017C397.637 142.006 397.631 141.995 397.626 141.983C397.603 141.933 397.58 141.883 397.555 141.834C397.55 141.823 397.544 141.812 397.538 141.8C397.513 141.749 397.486 141.699 397.458 141.649C397.453 141.641 397.449 141.634 397.445 141.626C396.622 140.166 395.018 139.162 393.175 139.146C391.102 139.128 389.306 140.364 388.577 142.113C388.357 142.639 388.233 143.211 388.228 143.809L388.209 145.919C389.828 144.372 391.018 142.506 391.862 140.454Z" fill="#332C33"/>
<path d="M390.031 216.049L391.193 211.069C391.298 211.051 391.404 211.033 391.509 211.014C395.527 210.319 401.871 207.498 405.932 207.155L393.132 236.773C391.263 244.927 387.651 265.355 387.648 265.377C387.648 266.535 381.699 268.137 379.042 266.728C382.601 241.585 387.295 224.239 390.031 216.049Z" fill="#332C33"/>
<path d="M382.598 201.759L394.158 206.972L401.579 229.695C404.653 237.457 412.747 255.593 412.747 255.594C411.801 256.787 409.299 260.525 406.355 261.008C395.105 238.464 383.01 213.641 382.598 201.759Z" fill="#332C33"/>
<path d="M392.413 149.755C393.825 149.909 395.554 150.308 396.385 151.52C396.803 152.13 397.009 152.841 397.112 153.573C396.763 154.006 396.339 154.382 395.859 154.679C395.13 155.131 394.272 155.406 393.355 155.441C393.274 155.445 393.192 155.446 393.109 155.445C392.733 155.441 392.367 155.398 392.015 155.319C391.955 155.306 391.896 155.291 391.838 155.275C391.819 155.271 391.801 155.266 391.782 155.261C391.763 155.255 391.742 155.249 391.723 155.243C391.687 155.234 391.651 155.222 391.615 155.211C391.564 155.195 391.514 155.179 391.464 155.161C391.236 155.083 391.016 154.988 390.805 154.88C390.524 154.736 390.26 154.567 390.014 154.376C389.954 154.33 389.894 154.282 389.836 154.233C389.713 154.127 389.594 154.015 389.481 153.899C389.435 153.851 389.39 153.802 389.345 153.753C389.319 153.723 389.293 153.694 389.267 153.663C389.219 153.606 389.173 153.549 389.127 153.49C388.917 153.218 388.737 152.925 388.589 152.615C388.573 152.581 388.557 152.546 388.541 152.511C388.477 152.367 388.42 152.218 388.371 152.067C388.35 152.005 388.33 151.942 388.313 151.879C388.309 151.863 388.304 151.847 388.3 151.831C388.293 151.805 388.286 151.779 388.279 151.752C388.26 151.677 388.244 151.602 388.228 151.526C388.214 151.455 388.202 151.383 388.191 151.31C388.189 151.296 388.187 151.281 388.185 151.266C388.178 151.216 388.172 151.167 388.167 151.116C388.165 151.1 388.163 151.083 388.162 151.067C388.159 151.041 388.157 151.014 388.155 150.987C388.151 150.935 388.148 150.883 388.145 150.831C388.142 150.75 388.141 150.67 388.141 150.589L388.149 149.817C389.569 149.659 390.995 149.602 392.413 149.755Z" fill="#DFDBDB"/>
<path d="M390.51 150.303C390.517 150.016 390.643 149.804 390.825 149.666C389.933 149.658 389.04 149.718 388.15 149.817L388.142 150.589C388.142 150.67 388.143 150.751 388.146 150.831C388.148 150.883 388.152 150.935 388.156 150.987C388.158 151.014 388.16 151.041 388.163 151.067C388.164 151.083 388.165 151.1 388.168 151.116C388.173 151.167 388.178 151.216 388.186 151.266C388.188 151.281 388.19 151.295 388.192 151.31C388.203 151.383 388.215 151.455 388.229 151.526C388.244 151.602 388.261 151.677 388.28 151.752C388.287 151.779 388.293 151.805 388.301 151.831C388.305 151.847 388.309 151.863 388.314 151.879C388.332 151.943 388.351 152.005 388.371 152.067C388.421 152.218 388.478 152.366 388.542 152.511C388.557 152.546 388.574 152.581 388.59 152.615C388.738 152.925 388.918 153.218 389.128 153.49C389.173 153.548 389.22 153.606 389.268 153.662C389.294 153.693 389.32 153.723 389.346 153.753C389.391 153.802 389.435 153.85 389.482 153.898C389.594 154.015 389.713 154.127 389.837 154.232C389.896 154.281 389.954 154.329 390.014 154.376C390.26 154.567 390.525 154.736 390.805 154.879C391.016 154.988 391.237 155.082 391.465 155.161C391.515 155.178 391.565 155.195 391.616 155.211C391.651 155.222 391.687 155.233 391.724 155.243C391.743 155.249 391.763 155.255 391.783 155.26C391.802 155.265 391.82 155.27 391.838 155.275C391.897 155.29 391.956 155.305 392.016 155.318C392.159 155.35 392.305 155.375 392.453 155.395C391.212 154.111 390.458 152.451 390.51 150.303Z" fill="#FCE7FF"/>
<path d="M398.209 146.192L394.38 151.523" stroke="#DFDBDB" stroke-width="1.7489" stroke-miterlimit="10" stroke-linecap="round" stroke-linejoin="round"/>
<path d="M398.178 149.538L396.043 152.368" stroke="#DFDBDB" stroke-width="1.7489" stroke-miterlimit="10" stroke-linecap="round" stroke-linejoin="round"/>
<path d="M397.42 148.475C397.42 149.535 398.349 150.395 399.495 150.395C400.64 150.395 401.569 149.536 401.569 148.475C401.569 147.414 400.64 146.555 399.495 146.555C398.349 146.555 397.42 147.414 397.42 148.475Z" fill="#F3725F"/>
<path d="M383.363 190.548C385.625 189.288 388.202 188.612 390.423 187.292C398.219 182.657 399.386 174.746 404.127 167.885C405.396 166.047 407.947 163.678 410.356 163.368C413.109 163.014 413.075 165.157 412.623 167.699C410.794 177.998 405.486 187.834 397.552 195.153C395.033 197.477 392.222 199.581 389.006 200.854C387.203 201.567 385.234 202.012 383.336 201.723C381.438 201.435 379.63 200.31 378.948 198.595C377.744 195.567 380.379 192.211 383.363 190.548Z" fill="#FFF8F3"/>
<path d="M375.388 203.431C374.917 203 377.019 201.156 377.019 201.156C377.019 201.156 374.121 203.393 373.705 203.128C373.048 202.71 376.386 200.217 376.386 200.217C376.386 200.217 372.681 202.843 372.261 202.119C371.841 201.395 375.815 199.195 375.815 199.195C375.815 199.195 371.944 201.042 371.697 200.364C371.451 199.686 376.539 197.488 376.539 197.488C376.539 197.488 373.816 196.778 373.931 196.236C374.125 195.322 379.976 196.598 379.976 196.598L381.762 199.249C381.762 199.249 375.859 203.862 375.388 203.431Z" fill="#FFF8F3"/>
<path d="M407.814 184.69C407.814 184.69 404.512 193.803 393.161 199.153" stroke="#332C33" stroke-width="0.9837" stroke-miterlimit="10" stroke-linecap="round" stroke-linejoin="round"/>
<path d="M400.178 174.388L394.193 185.879C394.193 185.879 385.742 187.492 383.363 190.549" stroke="#332C33" stroke-width="0.9837" stroke-miterlimit="10" stroke-linecap="round" stroke-linejoin="round"/>
<path d="M328.813 282.364H289.394C288.6 282.364 287.95 281.74 287.95 280.977C287.95 280.214 288.6 279.59 289.394 279.59H328.813C329.608 279.59 330.258 280.214 330.258 280.977C330.258 281.74 329.608 282.364 328.813 282.364Z" fill="#D4C4D6"/>
<path d="M328.677 238.181C341.063 238.181 351.104 247.82 351.104 259.711C351.104 271.602 341.063 281.241 328.677 281.241C316.29 281.241 306.249 271.602 306.249 259.711C306.249 247.82 316.29 238.181 328.677 238.181ZM328.677 235.671C314.868 235.671 303.634 246.455 303.634 259.711C303.634 272.967 314.868 283.751 328.677 283.751C342.485 283.751 353.719 272.967 353.719 259.711C353.719 246.455 342.485 235.671 328.677 235.671Z" fill="#312D33"/>
<path d="M313.749 274.959L313.382 274.607C312.931 274.174 312.931 273.466 313.382 273.033L342.845 244.749C343.296 244.316 344.034 244.316 344.485 244.749L344.852 245.101C345.303 245.534 345.303 246.243 344.852 246.676L315.389 274.959C314.938 275.392 314.2 275.392 313.749 274.959Z" fill="#B7AABA"/>
<path d="M350.489 264.719C353.375 253.155 345.949 241.535 333.903 238.764C321.857 235.994 309.753 243.122 306.867 254.686C303.981 266.25 311.406 277.87 323.452 280.64C335.498 283.411 347.603 276.283 350.489 264.719Z" stroke="#D4C4D6" stroke-width="6.3871" stroke-miterlimit="10" stroke-linecap="round" stroke-linejoin="round"/>
<path d="M329.687 280.251H329.113C328.475 280.251 327.954 279.75 327.954 279.138V239.955C327.954 239.343 328.476 238.843 329.113 238.843H329.687C330.324 238.843 330.846 239.343 330.846 239.955V279.138C330.845 279.75 330.324 280.251 329.687 280.251Z" fill="#B7AABA"/>
<path d="M306.595 259.727V258.96C306.595 258.295 307.161 257.751 307.853 257.751H349.707C350.4 257.751 350.966 258.295 350.966 258.96V259.727C350.966 260.391 350.399 260.935 349.707 260.935H307.853C307.161 260.935 306.595 260.391 306.595 259.727Z" fill="#B7AABA"/>
<path d="M312.965 244.219L313.378 243.822C313.842 243.377 314.601 243.377 315.064 243.822L344.829 272.396C345.293 272.841 345.293 273.569 344.829 274.014L344.416 274.411C343.952 274.856 343.193 274.856 342.729 274.411L312.965 245.838C312.501 245.393 312.501 244.664 312.965 244.219Z" fill="#B7AABA"/>
<path d="M297.994 275.297V242.787C297.994 239.733 300.573 237.258 303.753 237.258H329.708" stroke="#D4C4D6" stroke-width="6.8858" stroke-miterlimit="10" stroke-linecap="round" stroke-linejoin="round"/>
<path d="M325.822 218.764H292.873C291.947 218.764 291.189 218.037 291.189 217.147V216.373C291.189 215.484 291.947 214.756 292.873 214.756H325.822C326.748 214.756 327.506 215.484 327.506 216.373V217.147C327.506 218.037 326.748 218.764 325.822 218.764Z" fill="#D4C4D6"/>
<path d="M321.315 236.862V230.786L321.832 205.088C321.888 202.268 324.285 200.011 327.223 200.011H329.952" stroke="#D4C4D6" stroke-width="7.4783" stroke-miterlimit="10" stroke-linecap="round" stroke-linejoin="round"/>
<path d="M362.509 202.081H322.357V227.706H362.509V202.081Z" fill="#332C33"/>
<path d="M300.329 212.651C300.263 212.034 300.176 211.414 300.057 210.798C301.371 209.016 304.608 206.995 306.966 205.916C309.237 204.876 313.115 203.595 315.517 202.882C323.948 200.38 323.866 194.856 330.014 189.569C331.661 188.154 334.635 186.541 336.957 186.813C339.61 187.124 339.037 189.113 337.974 191.375C333.668 200.541 329.821 205.518 320.582 210.487C317.963 211.896 305.421 213.149 300.398 213.712C300.385 213.357 300.366 213.003 300.329 212.651Z" fill="#FFD392"/>
<path d="M303.208 267.752C303.495 269.758 302.275 271.986 300.317 273.035C298.99 273.746 297.461 273.921 296.026 274.367C293.228 275.238 290.757 277.222 289.383 279.703L308.191 278.73L308.495 267.323L303.208 267.752Z" fill="#FFD392"/>
<path d="M296.026 274.367C297.461 273.921 298.99 273.746 300.317 273.035C301.452 272.428 302.338 271.424 302.828 270.297C303.188 270.778 303.536 271.269 303.924 271.732C304.299 272.18 304.721 272.61 305.254 272.898C305.789 273.187 306.41 273.272 307.043 273.132C307.509 273.029 307.948 272.818 308.355 272.558L308.191 278.73L289.383 279.704C290.757 277.222 293.228 275.238 296.026 274.367Z" fill="#312D33"/>
<path d="M289.783 280.618L308.093 279.671C308.613 279.644 309.05 279.222 309.064 278.733C309.077 278.244 308.661 277.866 308.14 277.892L289.83 278.84C289.309 278.867 288.872 279.289 288.859 279.778C288.846 280.267 289.261 280.645 289.783 280.618Z" fill="#DFDBDB"/>
<path d="M325.088 268.945C325.512 271.059 324.52 273.389 322.737 274.467C321.528 275.199 320.087 275.363 318.757 275.814C316.161 276.694 313.961 278.751 312.842 281.344L330.655 280.562L330.083 268.56L325.088 268.945Z" fill="#FFD392"/>
<path d="M318.757 275.814C320.087 275.363 321.529 275.199 322.737 274.468C323.77 273.843 324.538 272.797 324.918 271.617C325.298 272.129 325.666 272.65 326.069 273.142C326.46 273.618 326.894 274.077 327.422 274.387C327.952 274.697 328.55 274.795 329.141 274.656C329.577 274.553 329.978 274.337 330.346 274.068L330.655 280.562L312.842 281.344C313.962 278.751 316.161 276.694 318.757 275.814Z" fill="#312D33"/>
<path d="M313.329 282.311L330.595 281.553C331.109 281.531 331.511 281.108 331.487 280.615L331.483 280.539C331.46 280.045 331.02 279.66 330.506 279.683L313.239 280.441C312.725 280.463 312.324 280.885 312.347 281.379L312.351 281.455C312.375 281.949 312.814 282.334 313.329 282.311Z" fill="#DFDBDB"/>
<path d="M343.2 178.773C342.996 179.842 342.878 180.927 342.847 182.014C342.801 183.642 343.013 185.417 344.16 186.584C343.449 187.552 342.37 188.347 341.199 188.643C340.027 188.938 338.752 188.816 337.66 188.304C337.362 188.164 337.078 187.997 336.794 187.83C336.446 187.625 336.099 187.42 335.751 187.215C337.258 184.645 338.546 181.803 338.143 178.858C338.895 178.72 339.96 178.405 340.712 178.267C341.039 178.207 341.369 178.146 341.7 178.161C342.227 178.183 342.681 178.861 343.2 178.773Z" fill="#FF735C"/>
<path d="M352.587 225.375C352.48 221.427 352.11 217.484 351.32 213.609C350.902 211.557 350.295 209.407 348.699 207.974C346.536 206.031 343.236 205.96 340.266 206.033C336.16 206.132 331.72 206.531 329.161 210.017C327.709 211.995 327.597 214.199 327.652 216.529C327.77 221.588 327.868 226.977 329.22 231.903C330.262 235.702 332.519 239.31 336.848 240.118C342.964 241.263 350.413 239.666 352.099 233.218C352.581 231.376 352.629 229.458 352.621 227.559C352.618 226.831 352.607 226.103 352.587 225.375Z" fill="#312D33"/>
<path d="M325.522 208.439C325.604 209.984 325.717 211.526 325.851 213.068C325.942 214.101 326.036 215.132 326.181 216.157C326.497 217.802 326.886 219.435 327.258 221.068C327.423 221.69 327.589 222.31 327.75 222.933C327.952 223.713 328.121 224.508 328.32 225.294C328.42 225.465 328.538 225.624 328.673 225.769C328.743 225.844 328.817 225.915 328.897 225.982C329.184 226.223 329.576 226.339 329.925 226.462C330.34 226.61 330.76 226.739 331.187 226.847C332.317 227.137 333.471 227.251 334.632 227.342C335.855 227.437 337.081 227.483 338.307 227.494C338.934 227.5 339.56 227.497 340.187 227.485C341.981 227.454 343.772 227.363 345.547 227.254C345.909 227.232 350.579 226.721 352.161 226.538C352.339 226.517 352.477 226.501 352.568 226.489C352.571 226.489 352.574 226.489 352.576 226.488L352.608 226.484C352.657 226.478 352.684 226.474 352.684 226.473C352.8 224.846 353.039 222.979 353.352 220.985C353.597 219.424 353.886 217.785 354.196 216.123C354.277 215.688 354.359 215.252 354.443 214.816C354.445 214.81 354.446 214.804 354.447 214.798C355.029 211.745 355.659 208.661 356.185 205.877C356.372 204.893 356.546 203.946 356.7 203.051C356.726 202.903 356.751 202.755 356.775 202.61C356.779 202.588 356.783 202.565 356.787 202.543C357.333 199.338 358.573 195.258 357.889 192.027C357.403 189.736 355.047 188.395 352.956 187.468C352.937 187.459 352.917 187.451 352.897 187.442C352.665 187.339 352.435 187.242 352.212 187.149C350.811 186.562 349.262 186.266 347.688 186.131C347.375 186.104 347.061 186.084 346.747 186.069C346.727 186.067 346.706 186.067 346.685 186.066C345.985 186.034 345.286 186.027 344.596 186.038C344.596 186.038 344.596 186.038 344.595 186.038C344.343 186.041 344.093 186.047 343.845 186.054C341.333 186.127 338.836 186.401 336.331 186.58C335.932 186.608 335.532 186.635 335.133 186.657C334.822 186.674 334.52 186.688 334.227 186.699C334.154 186.701 334.081 186.704 334.008 186.707C333.977 186.708 333.947 186.709 333.917 186.709C333.829 186.713 333.742 186.716 333.656 186.719C333.505 186.724 333.356 186.729 333.21 186.735C332.457 186.764 331.766 186.802 331.119 186.906C330.368 187.238 329.599 187.533 328.889 187.945C328.403 188.227 327.97 188.552 327.629 188.987C327.241 189.482 326.988 190.094 326.788 190.683C326.35 191.97 326.15 193.33 325.982 194.665C325.798 196.119 325.615 197.568 325.518 199.031C325.31 202.162 325.356 205.307 325.522 208.439Z" fill="#FFD392"/>
<path d="M337.375 183.975C336.934 185.093 336.361 186.176 335.752 187.215C336.099 187.42 336.447 187.625 336.795 187.83C337.078 187.997 337.362 188.165 337.66 188.304C338.753 188.817 340.028 188.939 341.2 188.643C342.371 188.347 343.45 187.552 344.161 186.584C343.469 185.881 343.118 184.956 342.958 183.975H337.375Z" fill="#FF735C"/>
<path d="M340.497 171.442C339.064 171.738 338.277 173.159 338.482 174.433C338.686 175.708 339.655 176.822 340.748 177.726C341.298 176.173 341.686 174.805 342.235 173.252C342.442 172.668 342.583 171.905 341.994 171.533C341.664 171.324 340.885 171.363 340.497 171.442Z" fill="#2D201B"/>
<path d="M333.727 178.708C333.729 178.757 333.732 178.806 333.736 178.856C333.738 178.881 333.739 178.906 333.742 178.931C333.744 178.946 333.744 178.962 333.747 178.977C333.751 179.025 333.757 179.071 333.763 179.118C333.765 179.132 333.767 179.145 333.769 179.16C333.78 179.228 333.791 179.296 333.804 179.363C333.819 179.434 333.835 179.505 333.852 179.575C333.859 179.6 333.865 179.625 333.872 179.65C333.875 179.665 333.88 179.68 333.884 179.694C333.901 179.754 333.919 179.813 333.938 179.872C333.984 180.014 334.039 180.154 334.099 180.29C334.114 180.323 334.129 180.356 334.144 180.388C334.283 180.68 334.453 180.956 334.65 181.211C334.693 181.266 334.737 181.321 334.782 181.373C334.807 181.403 334.831 181.43 334.856 181.458C334.898 181.505 334.94 181.55 334.984 181.595C335.09 181.705 335.201 181.81 335.318 181.91C335.373 181.956 335.428 182.001 335.485 182.045C335.716 182.225 335.965 182.383 336.229 182.519C336.428 182.621 336.635 182.71 336.85 182.784C336.897 182.801 336.945 182.816 336.992 182.831C337.026 182.842 337.06 182.852 337.093 182.861C337.112 182.867 337.13 182.872 337.149 182.877C337.167 182.882 337.184 182.887 337.201 182.891C337.257 182.906 337.312 182.92 337.368 182.932C337.7 183.007 338.044 183.048 338.398 183.051C338.476 183.052 338.553 183.05 338.629 183.047C339.493 183.014 340.3 182.755 340.986 182.33C342.278 181.529 343.144 180.14 343.159 178.562L343.169 177.491L343.199 174.34L343.208 173.355L343.221 171.995C343.222 171.92 343.22 171.845 343.218 171.772C343.216 171.735 343.214 171.698 343.212 171.662C343.21 171.633 343.208 171.604 343.205 171.575C343.203 171.546 343.2 171.517 343.196 171.489C343.196 171.482 343.195 171.475 343.194 171.468C343.192 171.45 343.19 171.432 343.188 171.415C343.186 171.393 343.183 171.373 343.18 171.351C343.178 171.339 343.176 171.326 343.174 171.313C343.17 171.282 343.165 171.251 343.159 171.22C343.155 171.194 343.15 171.168 343.145 171.142C343.142 171.127 343.139 171.111 343.136 171.096C343.124 171.036 343.111 170.976 343.096 170.917C343.088 170.883 343.079 170.849 343.07 170.816C343.061 170.786 343.053 170.755 343.044 170.725C343.035 170.695 343.026 170.665 343.017 170.635C343.016 170.634 343.016 170.633 343.015 170.632C343.006 170.603 342.996 170.573 342.985 170.543C342.975 170.514 342.964 170.484 342.954 170.454C342.943 170.424 342.931 170.395 342.92 170.365C342.896 170.306 342.871 170.246 342.845 170.188C342.84 170.177 342.835 170.166 342.83 170.155C342.808 170.106 342.785 170.059 342.762 170.012C342.756 170.001 342.751 169.99 342.745 169.979C342.72 169.93 342.695 169.881 342.668 169.834C342.664 169.826 342.659 169.818 342.655 169.811C341.863 168.405 340.32 167.439 338.546 167.424C336.551 167.406 334.822 168.597 334.12 170.28C333.909 170.786 333.79 171.336 333.785 171.912L333.723 178.48C333.723 178.557 333.724 178.632 333.727 178.708Z" fill="#FF735C"/>
<path d="M339.803 177.047C338.9 176.426 337.579 176.482 336.528 176.427C335.601 176.379 334.672 176.35 333.743 176.334L333.723 178.481C333.723 178.557 333.724 178.632 333.727 178.707C333.729 178.757 333.732 178.806 333.736 178.855C333.738 178.88 333.739 178.905 333.742 178.93C333.744 178.945 333.744 178.961 333.747 178.976C333.751 179.024 333.757 179.07 333.763 179.117C333.765 179.131 333.767 179.145 333.769 179.159C333.78 179.227 333.791 179.295 333.804 179.362C333.819 179.433 333.835 179.504 333.852 179.574C333.859 179.599 333.865 179.624 333.872 179.649C333.875 179.664 333.88 179.679 333.884 179.694C333.901 179.754 333.919 179.813 333.938 179.871C333.985 180.013 334.039 180.153 334.099 180.289C334.114 180.322 334.129 180.355 334.144 180.387C334.283 180.679 334.453 180.955 334.65 181.211C334.693 181.266 334.737 181.32 334.782 181.373C334.807 181.402 334.831 181.43 334.856 181.458C334.898 181.505 334.94 181.55 334.984 181.595C335.09 181.705 335.201 181.81 335.318 181.91C335.373 181.956 335.428 182.001 335.485 182.045C335.716 182.225 335.965 182.383 336.229 182.519C336.428 182.621 336.635 182.71 336.85 182.784C336.897 182.801 336.945 182.816 336.992 182.831C337.026 182.842 337.06 182.852 337.094 182.861C337.112 182.867 337.13 182.872 337.149 182.877C337.167 182.882 337.184 182.886 337.201 182.891C337.257 182.906 337.312 182.92 337.368 182.932C337.7 183.007 338.044 183.048 338.398 183.051C338.476 183.052 338.553 183.05 338.629 183.047C339.493 183.014 340.3 182.755 340.986 182.33C341.125 182.244 341.258 182.15 341.386 182.051C341.353 180.359 341.307 178.082 339.803 177.047Z" fill="#FCE7FF"/>
<path d="M338.73 183.035C338.733 183.037 338.735 183.038 338.736 183.04C339.56 182.991 340.329 182.738 340.987 182.331C341.126 182.244 341.258 182.151 341.387 182.051C341.353 180.359 341.307 178.082 339.803 177.047C339.001 176.495 337.869 176.477 336.89 176.442C336.372 178.853 336.934 181.21 338.73 183.035Z" fill="#DFDBDB"/>
<path d="M345.783 175.939C345.773 176.902 344.953 177.676 343.949 177.667C342.946 177.659 342.14 176.871 342.149 175.907C342.158 174.944 342.979 174.17 343.982 174.179C344.986 174.187 345.792 174.975 345.783 175.939Z" fill="#FF735C"/>
<path d="M339.723 177.549L342.681 174.415" stroke="#DFDBDB" stroke-width="1.5963" stroke-miterlimit="10" stroke-linecap="round" stroke-linejoin="round"/>
<path d="M341.23 180.095L343.323 178.862" stroke="#DFDBDB" stroke-width="1.5963" stroke-miterlimit="10" stroke-linecap="round" stroke-linejoin="round"/>
<path d="M357.704 191.272C359.312 194.126 359.987 197.493 360.841 200.632C361.918 204.596 362.781 208.737 362.034 212.77C361.287 216.804 360.736 217.735 356.675 218.993C352.739 220.212 345.523 218.752 341.717 217.199C339.603 216.336 338.071 218.118 337.691 215.943C337.308 213.752 336.538 215.145 338.775 214.576C341.012 214.007 346.606 212.659 349.705 212.077C352.082 211.63 354.388 211.482 354.388 211.482C355.453 211.578 353.849 204.328 353.632 203.609C352.639 200.317 351.24 196.875 351.914 193.393C352.189 191.97 352.756 191.015 354.124 190.344C355.5 189.67 356.935 189.907 357.704 191.272Z" fill="#FFD392"/>
<path d="M333.742 215.242C335.937 214.54 344.941 212.473 347.747 211.081C350.259 209.835 353.357 208.509 353.357 208.509C353.97 208.564 353.698 206.181 353.316 204.014C353.373 204.011 353.43 204.007 353.486 204.005C356.077 203.898 359.691 207.141 362.225 207.643C362.377 209.357 362.348 211.074 362.034 212.771C361.287 216.804 360.736 217.735 356.675 218.993C352.739 220.212 347.668 219.794 343.56 219.607C339.881 219.44 334.378 218.523 334.378 218.523C333.996 216.332 333.655 215.27 333.742 215.242Z" fill="#FFD392"/>
<path d="M322.431 269.385L321.605 234.386C321.578 233.235 322.034 232.121 322.869 231.295C323.704 230.469 324.85 229.999 326.05 229.992L347.824 229.848L347.885 238.442L330.658 238.556L331.381 269.19L322.431 269.385Z" fill="#312D33"/>
<path d="M310.206 269.085L301.284 268.38L304.066 235.932C304.253 233.761 306.101 232.068 308.368 231.99L344.175 230.762L344.494 239.351L312.662 240.442L310.206 269.085Z" fill="#312D33"/>
<path d="M300.982 213.054C300.979 212.99 300.97 212.927 300.962 212.865C300.879 212.271 300.797 211.677 300.714 211.083C300.69 210.909 300.663 210.729 300.565 210.581C300.341 210.242 299.851 210.201 299.433 210.213C296.459 210.301 293.582 211.3 290.958 212.647C290.732 212.762 290.498 212.89 290.368 213.101C289.927 213.815 290.92 213.959 291.389 214.005C292.387 214.102 293.385 214.199 294.383 214.296C295.293 214.384 296.209 214.473 297.122 214.407C298.244 214.327 299.332 214.017 300.409 213.708C300.591 213.656 300.786 213.595 300.894 213.445C300.975 213.333 300.99 213.194 300.982 213.054Z" fill="#FF735C"/>
<path d="M291.729 212.781C291.237 212.929 290.919 213.39 290.738 213.854C290.484 214.503 290.418 215.227 290.607 215.896C290.795 216.565 291.246 217.172 291.873 217.518C292.227 217.713 292.68 217.818 293.036 217.629C293.237 217.522 293.378 217.338 293.523 217.166C294.023 216.573 294.64 216.072 295.332 215.697C295.662 215.518 296.03 215.364 296.406 215.403C296.782 215.443 297.366 215.985 297.495 216.281C298.044 216.335 298.101 215.902 298.475 215.512C299.164 214.791 299.564 213.821 299.574 212.843C299.577 212.593 299.553 212.335 299.429 212.115C299.259 211.81 298.916 211.621 298.564 211.55C298.211 211.479 297.845 211.512 297.488 211.558C295.946 211.757 294.438 212.199 293.042 212.86" fill="#FF735C"/>
<path d="M325.357 218.867L327.983 217.036C328.056 216.985 328.139 216.95 328.226 216.932L328.44 216.89C328.448 216.863 328.456 216.837 328.465 216.81C328.171 216.824 327.875 216.833 327.581 216.826C327.171 216.817 325.739 216.84 325.654 216.668C325.641 216.644 325.632 216.618 325.631 216.59C325.628 216.145 328.58 215.666 330.16 215.464C330.7 215.395 330.906 214.745 330.493 214.403C330.014 214.008 329.605 213.584 329.734 213.373C330.145 212.696 333.936 214.814 334.906 215.371C335.051 215.454 335.154 215.588 335.195 215.744L335.765 217.92C335.845 218.223 335.673 218.534 335.367 218.64C334.922 218.794 334.241 219.027 333.483 219.274C333.444 219.287 333.405 219.305 333.368 219.326C332.678 219.723 331.857 219.907 331.055 219.84C331.035 219.838 331.016 219.838 330.997 219.838L325.745 219.967C325.514 219.973 325.299 219.857 325.182 219.666C325.018 219.395 325.093 219.051 325.357 218.867Z" fill="#FF735C"/>
<path d="M352.539 205.98L350.473 198.205" stroke="#312D33" stroke-width="1.477" stroke-miterlimit="10" stroke-linecap="round" stroke-linejoin="round"/>
<path d="M299.851 214.514C298.988 214.514 298.281 213.835 298.281 213.007V210.394C298.281 209.565 298.988 208.887 299.851 208.887C300.715 208.887 301.421 209.566 301.421 210.394V213.007C301.421 213.835 300.715 214.514 299.851 214.514Z" fill="#FFD392"/>
<path d="M335.711 219.923C334.847 219.923 334.141 219.244 334.141 218.416V215.803C334.141 214.974 334.848 214.296 335.711 214.296C336.574 214.296 337.281 214.975 337.281 215.803V218.416C337.281 219.245 336.574 219.923 335.711 219.923Z" fill="#FFD392"/>
<path d="M347.292 192.836C347.061 190.656 347.457 187.971 349.555 187.109C350.294 186.806 351.138 186.796 351.922 186.963C354.488 187.509 356.686 189.455 358.088 191.589C362.049 197.618 364.623 204.917 363.725 211.993C363.54 213.448 363.175 214.923 362.31 216.131C358.823 221.008 353.251 216.424 352.387 212.331C351.009 205.803 347.993 199.465 347.292 192.836Z" fill="#FFD392"/>
<path d="M347.186 211.499C350.36 209.506 353.903 208.057 357.599 207.24" stroke="#332C33" stroke-width="1.1972" stroke-miterlimit="10" stroke-linecap="round" stroke-linejoin="round"/>
<path d="M353.467 208.344C353.488 208.207 353.458 208.069 353.429 207.933C353.119 206.508 352.81 205.084 352.501 203.659" stroke="#332C33" stroke-width="1.1972" stroke-miterlimit="10" stroke-linecap="round" stroke-linejoin="round"/>
<path d="M326.393 196.307C326.393 196.307 325.304 202.978 325.472 207.72" stroke="#332C33" stroke-width="1.1972" stroke-miterlimit="10" stroke-linecap="round" stroke-linejoin="round"/>
<path d="M380.03 203.379H373.839C372.761 203.379 371.878 202.532 371.878 201.497C371.878 200.462 372.761 199.615 373.839 199.615H380.03C381.109 199.615 381.991 200.462 381.991 201.497C381.991 202.532 381.109 203.379 380.03 203.379Z" fill="#332C33"/>
<path d="M366.086 221.538H334.717C333.914 221.538 333.258 220.908 333.258 220.137V219.753C333.258 218.983 333.914 218.353 334.717 218.353H366.086C366.888 218.353 367.544 218.983 367.544 219.753V220.137C367.544 220.908 366.888 221.538 366.086 221.538Z" fill="#D4C4D6"/>
<path d="M363.623 238.447V232.371L364.14 206.673C364.197 203.853 366.594 201.596 369.531 201.596H372.261" stroke="#D4C4D6" stroke-width="7.4783" stroke-miterlimit="10" stroke-linecap="round" stroke-linejoin="round"/>
<path d="M331.321 277.283L331.634 240.211C331.634 237.158 334.212 234.682 337.393 234.682H363.347" stroke="#D4C4D6" stroke-width="6.8858" stroke-miterlimit="10" stroke-linecap="round" stroke-linejoin="round"/>
<path d="M338.032 221.21V234.683" stroke="#D4C4D6" stroke-width="6.8858" stroke-miterlimit="10" stroke-linecap="round" stroke-linejoin="round"/>
<path d="M333.623 273.487C336.927 273.487 339.605 276.057 339.605 279.229C339.605 282.401 336.927 284.971 333.623 284.971C330.319 284.971 327.641 282.401 327.641 279.229C327.641 276.057 330.319 273.487 333.623 273.487ZM333.623 272.104C329.531 272.104 326.202 275.301 326.202 279.229C326.202 283.157 329.531 286.354 333.623 286.354C337.715 286.354 341.045 283.157 341.045 279.229C341.045 275.3 337.715 272.104 333.623 272.104Z" fill="#312D33" stroke="#312D33" stroke-width="3.8298" stroke-miterlimit="10" stroke-linecap="round" stroke-linejoin="round"/>
<path d="M333.623 284.207C330.763 284.207 328.437 281.974 328.437 279.229C328.437 276.483 330.763 274.25 333.623 274.25C336.483 274.25 338.809 276.483 338.809 279.229C338.809 281.974 336.483 284.207 333.623 284.207Z" fill="#554D57"/>
<path d="M333.623 275.014C336.044 275.014 338.013 276.905 338.013 279.229C338.013 281.553 336.044 283.443 333.623 283.443C331.202 283.443 329.233 281.553 329.233 279.229C329.233 276.905 331.202 275.014 333.623 275.014ZM333.623 273.487C330.319 273.487 327.641 276.057 327.641 279.229C327.641 282.4 330.319 284.971 333.623 284.971C336.927 284.971 339.605 282.4 339.605 279.229C339.605 276.057 336.926 273.487 333.623 273.487Z" fill="#D4C4D6"/>
<path d="M333.567 281.317C334.712 281.317 335.64 280.426 335.64 279.327C335.64 278.228 334.712 277.337 333.567 277.337C332.423 277.337 331.494 278.228 331.494 279.327C331.494 280.426 332.423 281.317 333.567 281.317Z" fill="#554D57"/>
<path d="M333.623 275.014C336.044 275.014 338.013 276.905 338.013 279.229C338.013 281.553 336.044 283.443 333.623 283.443C331.202 283.443 329.233 281.553 329.233 279.229C329.233 276.905 331.202 275.014 333.623 275.014ZM333.623 273.487C330.319 273.487 327.641 276.057 327.641 279.229C327.641 282.4 330.319 284.971 333.623 284.971C336.927 284.971 339.605 282.4 339.605 279.229C339.605 276.057 336.926 273.487 333.623 273.487Z" fill="#D4C4D6"/>
<path d="M333.567 281.317C334.712 281.317 335.64 280.426 335.64 279.327C335.64 278.228 334.712 277.337 333.567 277.337C332.423 277.337 331.494 278.228 331.494 279.327C331.494 280.426 332.423 281.317 333.567 281.317Z" fill="#D4C4D6"/>
<path d="M363.961 237.983C376.99 237.983 387.552 248.121 387.552 260.629C387.552 273.136 376.99 283.275 363.961 283.275C350.932 283.275 340.371 273.136 340.371 260.629C340.371 248.121 350.932 237.983 363.961 237.983ZM363.961 235.343C349.437 235.343 337.621 246.686 337.621 260.629C337.621 274.572 349.437 285.915 363.961 285.915C378.485 285.915 390.301 274.572 390.301 260.629C390.301 246.686 378.485 235.343 363.961 235.343Z" fill="#312D33"/>
<path d="M348.259 276.668L347.874 276.297C347.399 275.842 347.399 275.096 347.874 274.641L378.864 244.891C379.338 244.436 380.114 244.436 380.589 244.891L380.974 245.262C381.449 245.717 381.449 246.463 380.974 246.918L349.984 276.668C349.51 277.123 348.734 277.123 348.259 276.668Z" fill="#B7AABA"/>
<path d="M373.3 281.435C385.263 276.481 390.778 263.155 385.617 251.671C380.457 240.187 366.575 234.893 354.612 239.847C342.649 244.802 337.135 258.127 342.295 269.611C347.456 281.095 361.337 286.389 373.3 281.435Z" stroke="#D4C4D6" stroke-width="6.7181" stroke-miterlimit="10" stroke-linecap="round" stroke-linejoin="round"/>
<path d="M365.023 282.233H364.42C363.749 282.233 363.201 281.706 363.201 281.063V239.849C363.201 239.205 363.749 238.679 364.42 238.679H365.023C365.694 238.679 366.242 239.205 366.242 239.849V281.063C366.242 281.706 365.694 282.233 365.023 282.233Z" fill="#B7AABA"/>
<path d="M340.735 260.645V259.838C340.735 259.139 341.33 258.567 342.058 258.567H386.082C386.81 258.567 387.406 259.139 387.406 259.838V260.645C387.406 261.344 386.81 261.916 386.082 261.916H342.058C341.33 261.916 340.735 261.344 340.735 260.645Z" fill="#B7AABA"/>
<path d="M347.139 243.915L347.514 243.554C347.996 243.092 348.784 243.092 349.266 243.554L380.962 273.982C381.443 274.444 381.443 275.201 380.962 275.663L380.587 276.023C380.105 276.486 379.317 276.486 378.835 276.023L347.14 245.596C346.658 245.134 346.658 244.377 347.139 243.915Z" fill="#B7AABA"/>
<path d="M337.903 199.441C336.792 202.806 339.085 206.839 342.636 207.761" stroke="#332C33" stroke-width="1.1972" stroke-miterlimit="10" stroke-linecap="round" stroke-linejoin="round"/>
<path d="M328.711 199.441C327.599 202.806 329.894 206.839 333.444 207.761" stroke="#332C33" stroke-width="1.1972" stroke-miterlimit="10" stroke-linecap="round" stroke-linejoin="round"/>
<path d="M399.596 175.348C400.957 173.06 402.748 171.009 404.857 169.324" stroke="#332C33" stroke-width="0.9837" stroke-miterlimit="10" stroke-linecap="round" stroke-linejoin="round"/>
<path d="M389.804 200.443C389.825 211.574 389.847 222.706 389.867 233.837C396.117 234.387 402.644 234.318 408.8 233.151C409.779 220.803 411.488 202.715 407.538 190.926C404.654 195.771 400.165 198.408 396.675 198.929C394.428 199.265 391.917 199.636 389.804 200.443Z" fill="#FFF8F3"/>
<path d="M382.759 201.108C379.217 211.477 376.694 222.167 375.233 232.989C378.566 233.584 381.628 234.435 385.012 234.628C385.755 230.288 387.168 225.899 388.612 221.725C386.693 214.919 386.933 206.961 388.512 200.076C386.414 201.292 385.209 201.183 382.759 201.108Z" fill="#FFF8F3"/>
<path d="M375.388 203.431C374.917 203.001 377.019 201.156 377.019 201.156C377.019 201.156 374.121 203.393 373.705 203.128C373.048 202.71 376.386 200.217 376.386 200.217C376.386 200.217 372.681 202.843 372.261 202.119C371.841 201.395 375.815 199.195 375.815 199.195C375.815 199.195 371.944 201.042 371.697 200.364C371.451 199.686 376.539 197.488 376.539 197.488C376.539 197.488 373.816 196.778 373.931 196.236C374.125 195.322 379.976 196.598 379.976 196.598L381.762 199.249C381.762 199.249 375.859 203.862 375.388 203.431Z" fill="#F3725F"/>
<path d="M390.867 147.082C390.867 147.966 390.12 148.683 389.199 148.683C388.278 148.683 387.531 147.966 387.531 147.082C387.531 146.197 388.278 145.48 389.199 145.48C390.12 145.48 390.867 146.197 390.867 147.082Z" stroke="#FFF8F3" stroke-width="1.2231" stroke-miterlimit="10" stroke-linecap="round" stroke-linejoin="round"/>
<path d="M395.101 146.959C395.101 147.843 394.354 148.56 393.433 148.56C392.512 148.56 391.765 147.843 391.765 146.959C391.765 146.074 392.512 145.357 393.433 145.357C394.354 145.357 395.101 146.074 395.101 146.959Z" stroke="#FFF8F3" stroke-width="1.2231" stroke-miterlimit="10" stroke-linecap="round" stroke-linejoin="round"/>
<path d="M393.671 139.415C397.58 139.415 400.748 136.373 400.748 132.621C400.748 128.869 397.58 125.827 393.671 125.827C389.762 125.827 386.594 128.869 386.594 132.621C386.594 136.373 389.762 139.415 393.671 139.415Z" fill="#332C33"/>
<path d="M399.562 151.908C400.159 151.908 400.643 151.444 400.643 150.87C400.643 150.297 400.159 149.832 399.562 149.832C398.965 149.832 398.481 150.297 398.481 150.87C398.481 151.444 398.965 151.908 399.562 151.908Z" fill="#FFF8F3"/>
<path d="M383.393 164.807C381.344 164.812 379.681 166.417 379.686 168.385L379.713 177.988C379.718 179.473 380.672 180.746 382.021 181.279L382.018 180.111C381.286 179.663 380.797 178.879 380.795 177.985L380.767 168.382C380.763 166.987 381.943 165.848 383.396 165.845C384.85 165.841 386.035 166.973 386.04 168.369L386.067 177.972C386.07 179.071 385.338 180.008 384.316 180.359L384.319 181.44C385.944 181.055 387.153 179.645 387.148 177.969L387.121 168.366C387.116 166.398 385.443 164.801 383.393 164.807Z" fill="#332C33"/>
<path d="M385.669 180.46C385.67 181.033 385.187 181.499 384.59 181.501C383.993 181.503 383.508 181.039 383.506 180.466C383.504 179.892 383.987 179.426 384.584 179.425C385.182 179.423 385.667 179.886 385.669 180.46Z" fill="#D4C4D6"/>
<path d="M382.82 180.559C382.822 181.133 382.339 181.599 381.742 181.6C381.145 181.602 380.659 181.138 380.658 180.565C380.656 179.992 381.139 179.526 381.736 179.524C382.333 179.523 382.819 179.986 382.82 180.559Z" fill="#D4C4D6"/>
<path d="M391.201 157.43C389.178 157.703 387.192 158.443 385.651 159.731C384.111 161.02 383.053 162.888 382.991 164.849" stroke="#332C33" stroke-width="2.5772" stroke-miterlimit="10" stroke-linecap="round" stroke-linejoin="round"/>
<path d="M401.6 159.897C401.249 157.811 399.85 156.199 397.95 155.691C397.842 155.662 397.733 155.667 397.635 155.698C397.685 156.046 397.742 156.393 397.811 156.738C399.223 157.181 400.259 158.439 400.532 160.063C400.752 161.367 400.62 162.759 400.462 163.948C400.303 165.141 400.093 166.517 399.598 167.748C399.491 168.016 399.63 168.316 399.908 168.419C399.973 168.443 400.038 168.454 400.103 168.454C400.32 168.454 400.524 168.327 400.607 168.122C401.146 166.782 401.368 165.333 401.535 164.08C401.703 162.817 401.842 161.332 401.6 159.897Z" fill="#332C33"/>
<path d="M401.928 170.187C401.928 171.476 400.839 172.52 399.497 172.52C398.155 172.52 397.067 171.476 397.067 170.187C397.067 168.898 398.155 167.854 399.497 167.854C400.839 167.854 401.928 168.899 401.928 170.187Z" fill="#D4C4D6"/>
<path d="M400.584 169.162C401.188 169.742 401.188 170.681 400.584 171.261C399.98 171.84 399.001 171.84 398.398 171.261C397.794 170.681 397.794 169.742 398.398 169.162C399.001 168.582 399.98 168.582 400.584 169.162Z" fill="#BCA4C1"/>
<path d="M398.514 159.824H390.403C389.864 159.824 389.423 159.401 389.423 158.884C389.423 158.366 389.864 157.943 390.403 157.943H398.514C399.053 157.943 399.494 158.366 399.494 158.884C399.495 159.401 399.054 159.824 398.514 159.824Z" fill="#EA9A43"/>
<path d="M391.891 162.614C391.537 162.614 391.248 162.337 391.248 161.998C391.248 161.659 391.537 161.382 391.891 161.382C392.244 161.382 392.533 161.659 392.533 161.998C392.533 162.337 392.244 162.614 391.891 162.614Z" stroke="#332C33" stroke-width="0.9837" stroke-miterlimit="10" stroke-linecap="round" stroke-linejoin="round"/>
<path d="M391.451 166.378C391.098 166.378 390.809 166.1 390.809 165.761C390.809 165.422 391.098 165.145 391.451 165.145C391.804 165.145 392.093 165.423 392.093 165.761C392.093 166.101 391.804 166.378 391.451 166.378Z" stroke="#332C33" stroke-width="0.9837" stroke-miterlimit="10" stroke-linecap="round" stroke-linejoin="round"/>
<path d="M391.045 169.557C390.692 169.557 390.403 169.28 390.403 168.941C390.403 168.602 390.692 168.325 391.045 168.325C391.399 168.325 391.687 168.602 391.687 168.941C391.688 169.28 391.399 169.557 391.045 169.557Z" stroke="#332C33" stroke-width="0.9837" stroke-miterlimit="10" stroke-linecap="round" stroke-linejoin="round"/>
<path d="M364.279 262.733C363.09 262.733 362.117 261.799 362.117 260.657C362.117 259.515 363.09 258.581 364.279 258.581C365.469 258.581 366.442 259.515 366.442 260.657C366.443 261.799 365.469 262.733 364.279 262.733Z" stroke="#D4C4D6" stroke-width="7.4783" stroke-miterlimit="10" stroke-linecap="round" stroke-linejoin="round"/>
<path d="M407.652 209.962H396.826C396.826 209.962 408.04 210.335 407.652 209.962Z" stroke="#332C33" stroke-width="0.9837" stroke-miterlimit="10" stroke-linecap="round" stroke-linejoin="round"/>
<path d="M342.718 174.813C341.691 174.696 341.145 173.296 340.723 172.389C340.302 171.482 340.252 170.456 340.317 169.465H345.304C346.06 169.465 346.755 169.934 346.944 170.637C346.959 170.691 346.969 170.745 346.976 170.798C347.027 171.205 346.94 171.658 346.622 171.932C346.349 172.167 345.963 172.229 345.599 172.266C345.235 172.304 344.853 172.332 344.544 172.522C344.235 172.711 344.039 173.124 344.228 173.425C344.312 173.557 344.455 173.647 344.543 173.777C344.66 173.949 344.663 174.185 344.551 174.36L342.718 174.813Z" fill="#FFF8F3"/>
<path d="M343.933 169.681C344.713 169.269 344.91 168.223 344.607 167.42C344.176 166.281 342.871 165.51 341.617 165.654C340.122 165.826 338.757 167.124 337.32 166.696C336.459 166.44 335.919 165.639 335.188 165.132C334.112 164.387 332.559 164.344 331.441 165.03C331.436 165.033 331.431 165.036 331.427 165.039C330.606 165.542 330.104 166.408 330.104 167.343V170.74C330.104 172.098 330.81 173.406 332.044 174.069C332.671 174.406 333.4 174.576 334.306 174.443C334.706 174.384 335.096 174.262 335.457 174.084C337.082 173.284 337.963 171.692 338.348 170.055C338.775 170.602 339.485 170.893 340.192 170.978C341.657 171.153 343.158 170.54 344.529 170.774C344.647 170.61 344.597 170.68 344.715 170.516C344.534 170.232 344.218 169.865 343.933 169.681Z" fill="#FFF8F3"/>
<path d="M343.462 178.641C343.91 178.641 344.273 178.293 344.273 177.863C344.273 177.432 343.91 177.084 343.462 177.084C343.014 177.084 342.651 177.432 342.651 177.863C342.651 178.293 343.014 178.641 343.462 178.641Z" fill="#FFD392"/>
<path d="M344.678 186.752C344.678 187.182 344.315 187.53 343.867 187.53C343.419 187.53 343.056 187.182 343.056 186.752C343.056 186.322 343.419 185.973 343.867 185.973C344.315 185.973 344.678 186.322 344.678 186.752Z" fill="#FFF8F3"/>
<path d="M336.635 186.881C336.635 187.311 336.272 187.66 335.824 187.66C335.376 187.66 335.013 187.312 335.013 186.881C335.013 186.451 335.376 186.103 335.824 186.103C336.272 186.103 336.635 186.452 336.635 186.881Z" fill="#FFF8F3"/>
<path d="M343.462 189.931C343.462 190.362 343.099 190.71 342.651 190.71C342.203 190.71 341.839 190.362 341.839 189.931C341.839 189.502 342.202 189.153 342.651 189.153C343.098 189.153 343.462 189.501 343.462 189.931Z" fill="#FFF8F3"/>
<path d="M341.231 194.733C341.679 194.733 342.042 194.384 342.042 193.954C342.042 193.524 341.679 193.175 341.231 193.175C340.783 193.175 340.42 193.524 340.42 193.954C340.42 194.384 340.783 194.733 341.231 194.733Z" fill="#FFF8F3"/>
<path d="M338.054 196.874C338.054 197.304 337.691 197.653 337.243 197.653C336.795 197.653 336.432 197.304 336.432 196.874C336.432 196.444 336.795 196.096 337.243 196.096C337.691 196.096 338.054 196.444 338.054 196.874Z" fill="#FFF8F3"/>
<path d="M334.81 193.889C334.81 194.319 334.447 194.668 333.999 194.668C333.551 194.668 333.188 194.319 333.188 193.889C333.188 193.459 333.551 193.111 333.999 193.111C334.447 193.111 334.81 193.459 334.81 193.889Z" fill="#FFF8F3"/>
<path d="M334.81 189.671C334.81 190.102 334.447 190.45 333.999 190.45C333.551 190.45 333.188 190.102 333.188 189.671C333.188 189.242 333.551 188.893 333.999 188.893C334.447 188.893 334.81 189.242 334.81 189.671Z" fill="#FFF8F3"/>
<path d="M296.169 214.078C296.138 214.219 296.182 214.359 296.262 214.481C296.308 214.551 296.335 214.651 296.332 214.734C296.305 215.415 296.147 216.091 295.872 216.718C295.685 217.143 296.135 217.586 296.569 217.388C296.572 217.386 296.576 217.385 296.579 217.384C296.908 217.23 297.169 216.97 297.414 216.709C297.879 216.211 298.312 215.685 298.71 215.135C298.915 214.852 298.77 214.445 298.422 214.36C297.747 214.195 297.185 213.682 297.234 213.011C297.242 212.909 297.255 212.79 297.178 212.719C297.117 212.662 297.022 212.659 296.937 212.665C296.328 212.706 296.307 213.452 296.169 214.078Z" fill="#FF735C"/>
<path d="M292.31 188.581H119.233V198.878H292.31V188.581Z" fill="#C9EBF4"/>
<path d="M163.684 167.867C163.684 167.867 171.737 170.166 180.743 185.988C181.487 187.295 182.827 188.193 184.364 188.397L199.29 190.373C201.313 190.641 203.13 191.702 204.307 193.303L205.298 194.651H174.272C172.464 194.651 170.854 193.55 170.264 191.909L166.758 182.168L163.684 167.867Z" fill="#DFDBDB"/>
<path d="M167.758 186.046C168.84 183.306 169.218 180.313 168.852 177.404" stroke="#5D515D" stroke-width="1.1783" stroke-miterlimit="10" stroke-linecap="round" stroke-linejoin="round"/>
<path d="M279.181 191.449H166.577V151.949C166.577 142.924 174.198 135.607 183.6 135.607H264.983C272.825 135.607 279.181 141.71 279.181 149.237V191.449Z" stroke="#FFF8F3" stroke-width="1.3122" stroke-miterlimit="10"/>
<path d="M269.611 188.523H230.362V165.673V163.555H269.611V188.523Z" fill="#312D33"/>
<path d="M268.35 166.581H232.411" stroke="#FFF8F3" stroke-width="0.5635" stroke-miterlimit="10"/>
<path d="M249.986 180.503C251.771 180.503 253.218 179.114 253.218 177.401C253.218 175.688 251.771 174.299 249.986 174.299C248.202 174.299 246.755 175.688 246.755 177.401C246.755 179.114 248.202 180.503 249.986 180.503Z" stroke="#FFF8F3" stroke-width="0.5635" stroke-miterlimit="10"/>
<path d="M244.075 150.844L264.983 135.607" stroke="#FFF8F3" stroke-width="1.3122" stroke-miterlimit="10"/>
<path d="M252.824 152.433L271.503 138.133" stroke="#FFF8F3" stroke-width="1.3122" stroke-miterlimit="10"/>
<path d="M229.416 220.754H122.973V234.373H229.416V220.754Z" fill="#C9EBF4"/>
<path d="M269.527 232.167C272.168 221.431 265.242 210.673 254.059 208.138C242.875 205.603 231.668 212.251 229.028 222.987C226.387 233.723 233.312 244.481 244.496 247.016C255.679 249.551 266.886 242.903 269.527 232.167Z" fill="#FFF8F3"/>
<path d="M269.527 232.167C272.168 221.431 265.242 210.673 254.059 208.138C242.875 205.603 231.668 212.251 229.028 222.987C226.387 233.723 233.312 244.481 244.496 247.016C255.679 249.551 266.886 242.903 269.527 232.167Z" stroke="#472A1C" stroke-width="1.1269" stroke-miterlimit="10" stroke-linecap="round" stroke-linejoin="round"/>
<path d="M254.34 216.614H245.005V240.414H254.34V216.614Z" fill="#204EA5"/>
<path d="M262.534 232.784V224.244H236.811V232.784H262.534Z" fill="#204EA5"/>
<path d="M161.172 175.245H161.022C156.768 175.245 153.288 171.904 153.288 167.821V149.897C153.288 145.814 156.768 142.474 161.022 142.474H161.172C165.425 142.474 168.905 145.814 168.905 149.897V167.821C168.905 171.904 165.425 175.245 161.172 175.245Z" fill="#312D33"/>
<path d="M150.44 266.425C150.855 268.94 149.442 271.636 147.092 272.816C145.499 273.615 143.642 273.734 141.911 274.197C138.531 275.101 135.588 277.412 133.995 280.413H156.864V266.23L150.44 266.425Z" fill="#DFDBDB"/>
<path d="M141.911 274.197C143.642 273.734 145.499 273.615 147.092 272.816C148.454 272.132 149.501 270.939 150.06 269.567C150.515 270.19 150.954 270.824 151.441 271.425C151.912 272.006 152.44 272.57 153.098 272.963C153.759 273.357 154.518 273.502 155.284 273.369C155.849 273.271 156.376 273.037 156.864 272.738V280.413H133.995C135.588 277.412 138.531 275.101 141.911 274.197Z" fill="#DFDBDB"/>
<path d="M134.511 281.578H156.775C157.408 281.578 157.926 281.08 157.926 280.472C157.926 279.864 157.408 279.367 156.775 279.367H134.511C133.878 279.367 133.359 279.864 133.359 280.472C133.359 281.08 133.878 281.578 134.511 281.578Z" fill="#DFDBDB"/>
<path d="M173.417 266.289C173.002 268.804 174.415 271.5 176.765 272.68C178.358 273.48 180.215 273.599 181.946 274.062C185.326 274.966 188.269 277.277 189.862 280.277H166.993V266.094L173.417 266.289Z" fill="#DFDBDB"/>
<path d="M181.946 274.062C180.215 273.599 178.358 273.48 176.765 272.68C175.403 271.997 174.356 270.804 173.797 269.432C173.342 270.055 172.903 270.688 172.416 271.289C171.945 271.871 171.417 272.435 170.759 272.827C170.098 273.222 169.339 273.367 168.573 273.234C168.008 273.136 167.481 272.901 166.993 272.603V280.277H189.862C188.269 277.277 185.326 274.966 181.946 274.062Z" fill="#DFDBDB"/>
<path d="M189.346 281.442H167.082C166.449 281.442 165.931 280.945 165.931 280.337C165.931 279.729 166.449 279.232 167.082 279.232H189.346C189.979 279.232 190.497 279.729 190.497 280.337C190.498 280.945 189.979 281.442 189.346 281.442Z" fill="#DFDBDB"/>
<path d="M162.618 217.901C156.104 217.901 150.774 212.784 150.774 206.531V198.688C150.774 192.435 156.104 187.318 162.618 187.318C169.132 187.318 174.462 192.435 174.462 198.688V206.531C174.462 212.785 169.132 217.901 162.618 217.901Z" fill="#312D33"/>
<path d="M154.122 195.082C147.685 193.23 142.615 187.587 141.651 181.204C142.945 178.443 144.707 174.962 146.465 172.449C147.081 171.569 147.748 170.684 148.68 170.116C149.612 169.547 150.876 169.36 151.813 169.921C152.51 170.337 152.911 171.078 153.253 171.795C156.884 179.415 156.969 187.162 154.122 195.082Z" fill="#5D515D"/>
<path d="M166.432 267.69C166.1 262.7 162.775 212.004 163.078 207.012L174.394 206.05C174.403 211.133 174.391 261.777 174.167 267.277L166.432 267.69Z" fill="#312D33"/>
<path d="M150.197 267.387C150.186 261.088 150.979 209.548 151.248 203.771L162.51 205.196C162.6 210.811 158.119 261.705 157.409 267.277L150.197 267.387Z" fill="#312D33"/>
<path d="M147.609 176.22C149.222 178.493 150.043 181.275 149.913 184.022C149.788 186.661 148.822 189.185 148.111 191.737C147.4 194.29 146.945 197.039 147.828 199.541C148.712 202.043 151.306 204.155 154.028 203.764H174.125C176.608 203.764 178.667 202.086 179.069 199.734C179.359 198.041 178.769 196.326 178.056 194.752C177.007 192.433 175.668 190.218 174.972 187.78C174.276 185.342 174.317 182.543 175.869 180.502C176.669 179.449 180.428 174.38 181.22 173.323C180.249 171.799 175.005 169.103 173.016 167.92C171.275 166.885 169.203 165.93 164.395 165.612C160.845 165.377 157.067 165.57 153.875 167.079C151.194 168.346 148.363 169.745 146.863 172.225C146.62 172.628 146.412 173.074 146.428 173.539C146.446 174.052 146.731 174.515 147.008 174.953C147.96 176.46 148.913 177.967 149.864 179.473" fill="#312D33"/>
<path d="M156.488 165.848C158.798 164.636 160.142 161.926 159.665 159.441H164.283C164.223 161.171 165.3 162.4 166.293 163.846C166.81 164.599 167.427 165.382 168.331 165.63C167.025 167.308 164.766 168.147 162.585 168.201C160.404 168.254 157.88 167.46 156.488 165.848Z" fill="#F3725F"/>
<path d="M163.102 160.805C165.757 160.805 167.93 158.72 167.93 156.17V149.451C167.93 146.902 165.757 144.817 163.102 144.817C160.447 144.817 158.274 146.902 158.274 149.451V156.17C158.274 158.72 160.447 160.805 163.102 160.805Z" fill="#F3725F"/>
<path d="M158.279 156.341C158.374 158.812 160.507 160.805 163.102 160.805C165.698 160.805 167.831 158.811 167.925 156.341H158.279Z" fill="#DFDBDB"/>
<path d="M157.332 156.24C158.358 156.24 159.19 155.441 159.19 154.455C159.19 153.47 158.358 152.671 157.332 152.671C156.305 152.671 155.473 153.47 155.473 154.455C155.473 155.441 156.305 156.24 157.332 156.24Z" fill="#F3725F"/>
<path d="M156.488 165.848C156.488 165.848 156.596 246.349 153.49 257.358L142.593 257.444L146.697 171.739C146.697 171.739 150.054 168.238 156.488 165.848Z" fill="#DFDBDB"/>
<path d="M143.742 200.678L160.475 187.633C161.027 187.203 161.851 187.595 161.828 188.277L161.256 205.66C161.221 206.704 160.723 207.685 159.886 208.353L142.623 222.137C142.097 222.557 141.301 222.175 141.335 221.519L142.276 203.453C142.332 202.371 142.866 201.361 143.742 200.678Z" fill="#FFBF80"/>
<path d="M142.133 205.428L157.776 193.216L157.347 206.228L141.432 218.889L142.133 205.428Z" fill="#DFDBDB"/>
<path d="M158.26 203.252L156.732 204.51V195.557L158.224 194.363L158.26 203.252Z" fill="#5D515D"/>
<path d="M153.624 199.019V207.076" stroke="#5D515D" stroke-width="1.1907" stroke-miterlimit="10" stroke-linecap="round" stroke-linejoin="round"/>
<path d="M151.821 200.391V208.449" stroke="#5D515D" stroke-width="1.1907" stroke-miterlimit="10" stroke-linecap="round" stroke-linejoin="round"/>
<path d="M150.08 201.645V209.702" stroke="#5D515D" stroke-width="1.1907" stroke-miterlimit="10" stroke-linecap="round" stroke-linejoin="round"/>
<path d="M148.153 203.555V211.612" stroke="#5D515D" stroke-width="1.1907" stroke-miterlimit="10" stroke-linecap="round" stroke-linejoin="round"/>
<path d="M145.119 180.156L141.124 188.821C140.319 191.76 140.157 193.153 140.641 197.019L143.658 214.352L146.343 214.18L146.462 195.511C146.448 194.362 146.672 193.223 147.12 192.158L148.577 188.697C147.501 185.822 146.343 182.975 145.119 180.156Z" fill="#98BBC9"/>
<path d="M148.81 211.131C148.81 211.131 141.35 213.518 141.35 212.801C141.35 212.085 134.386 179.618 147.318 171.262L149.307 186.541L148.81 211.131Z" fill="#DFDBDB"/>
<path d="M167.13 164.816L171.441 256.967L180.642 255.296L178.901 187.735L182.872 174.355C182.872 174.355 177.586 168.499 167.13 164.816Z" fill="#DFDBDB"/>
<path d="M149.115 195.66C149.115 194.944 149.225 187.288 149.225 187.288" stroke="#5D515D" stroke-width="1.1853" stroke-miterlimit="10" stroke-linecap="round" stroke-linejoin="round"/>
<path d="M172.745 215.359H179.577" stroke="#5D515D" stroke-width="1.1907" stroke-miterlimit="10" stroke-linecap="round" stroke-linejoin="round"/>
<path d="M158.302 150.214C158.302 150.214 160.167 149.737 160.788 147.469C160.788 147.469 161.434 150.161 167.929 149.452C167.929 149.452 168.207 144.604 162.695 144.803C162.695 144.803 157.68 144.763 158.302 150.214Z" fill="#312D33"/>
<path d="M171.812 186.535H178.645" stroke="#5D515D" stroke-width="1.1907" stroke-miterlimit="10" stroke-linecap="round" stroke-linejoin="round"/>
<path d="M156.83 157.057C156.318 157.057 155.898 156.655 155.898 156.162C155.898 155.67 156.317 155.267 156.83 155.267C157.343 155.267 157.763 155.67 157.763 156.162C157.763 156.655 157.343 157.057 156.83 157.057Z" fill="#DFDBDB"/>
<path d="M157.39 187.019C157.39 187.019 152.168 181.408 152.043 168.159" stroke="#5D515D" stroke-width="1.1907" stroke-miterlimit="10" stroke-linecap="round" stroke-linejoin="round"/>
<path d="M168.457 187.138C168.83 186.78 173.555 179.26 172.436 167.084" stroke="#5D515D" stroke-width="1.1907" stroke-miterlimit="10" stroke-linecap="round" stroke-linejoin="round"/>
<path d="M174.516 168.135C174.516 168.135 182.654 170.457 191.754 186.445C192.506 187.767 193.86 188.674 195.414 188.88L210.496 190.877C212.54 191.148 214.376 192.22 215.566 193.838L216.568 195.2H185.216C183.388 195.2 181.761 194.088 181.165 192.429L177.622 182.585L174.516 168.135Z" fill="#F3725F"/>
<path d="M220.819 194.72C220.461 194.655 220.1 194.605 219.738 194.562C219.756 194.535 219.772 194.507 219.788 194.479C219.788 194.479 214.464 192.225 211.405 191.3C211.213 191.436 211.097 191.648 211.114 191.879L211.298 194.418C211.311 194.6 211.406 194.77 211.562 194.891C212.611 195.704 216.728 198.817 217.387 198.144C217.594 197.934 217.196 197.38 216.706 196.844C216.283 196.382 216.686 195.698 217.36 195.728C219.33 195.816 223.035 195.866 223.135 195.368C223.142 195.337 223.137 195.307 223.126 195.278C223.064 195.069 221.315 194.812 220.819 194.72Z" fill="#FF735C"/>
<path d="M199.452 193.486C199.879 192.183 200.374 190.87 200.991 189.618L195.414 188.879C193.86 188.673 192.446 187.796 191.754 186.445C182.828 169.001 171.718 166.937 171.718 166.937L174.227 180.698L181.165 192.429C181.761 194.087 183.388 195.2 185.216 195.2H198.934C199.097 194.626 199.266 194.054 199.452 193.486Z" fill="#DFDBDB"/>
<path d="M141.888 210.511C141.944 211.351 142.324 212.138 142.735 212.882C143.627 214.499 144.695 216.027 145.916 217.432C145.644 218.101 145.955 218.68 146.335 219.299C146.714 219.917 147.336 220.378 148.025 220.658C148.425 220.821 148.858 220.928 149.291 220.902C150.484 220.832 151.356 219.827 152.03 218.881C152.244 219.186 152.634 219.268 152.829 218.952C153.023 218.635 152.964 218.235 152.865 217.881C152.415 216.277 151.231 214.877 149.688 214.126C149.36 212.5 148.447 210.487 148.281 208.838C145.945 209.065 144.193 210.076 141.888 210.511Z" fill="#F3725F"/>
</g>
<defs>
<clipPath id="clip0_18_287">
<rect width="359.828" height="201.417" fill="white" transform="translate(103.086 84.5835)"/>
</clipPath>
</defs>
</svg>
