<svg width="39" height="38" viewBox="0 0 39 38" fill="none" xmlns="http://www.w3.org/2000/svg">
<path fill-rule="evenodd" clip-rule="evenodd" d="M19.6844 37.8606C30.1181 37.8606 38.5762 29.4025 38.5762 18.9688C38.5762 8.53517 30.1181 0.0770264 19.6844 0.0770264C9.25074 0.0770264 0.792603 8.53517 0.792603 18.9688C0.792603 29.4025 9.25074 37.8606 19.6844 37.8606ZM22.6003 14.6734C24.2107 13.0629 24.2107 10.452 22.6003 8.84156C20.9899 7.23115 18.379 7.23115 16.7685 8.84156C15.1582 10.452 15.1582 13.0629 16.7685 14.6734L19.6844 17.5892L22.6003 14.6734ZM23.9799 21.8848C25.5903 23.4952 28.2013 23.4952 29.8117 21.8848C31.4221 20.2743 31.4221 17.6634 29.8117 16.0529C28.2013 14.4426 25.5903 14.4426 23.9799 16.0529L21.0641 18.9689L23.9799 21.8848ZM22.6003 29.0961C24.2107 27.4857 24.2107 24.8748 22.6003 23.2643L19.6844 20.3485L16.7685 23.2643C15.1582 24.8748 15.1582 27.4857 16.7685 29.0961C18.379 30.7066 20.9899 30.7066 22.6003 29.0961ZM9.55711 21.8848C7.94673 20.2743 7.94673 17.6634 9.55711 16.0529C11.1676 14.4426 13.7785 14.4426 15.3889 16.0529L18.3048 18.9689L15.3889 21.8848C13.7785 23.4952 11.1676 23.4952 9.55711 21.8848Z" fill="#7F57F1"/>
</svg>
