<svg width="39" height="38" viewBox="0 0 39 38" fill="none" xmlns="http://www.w3.org/2000/svg">
<path fill-rule="evenodd" clip-rule="evenodd" d="M8.73142 3.44758C7.38003 4.39251 6.15801 5.50973 5.09719 6.76738C9.4322 6.36491 14.9397 7.02209 21.3338 10.2192C28.1619 13.6331 33.6601 13.7485 37.4867 13.0104C37.1395 11.9592 36.7023 10.9489 36.1846 9.98841C31.8042 10.4504 26.1886 9.83888 19.6441 6.56673C15.4883 4.48882 11.825 3.63286 8.73142 3.44758ZM33.6258 6.34632C30.1666 2.48139 25.1396 0.0490723 19.5444 0.0490723C17.9013 0.0490723 16.307 0.258873 14.7871 0.653119C16.8456 1.21478 19.0323 2.03648 21.3338 3.18725C26.1253 5.58298 30.2621 6.35436 33.6258 6.34632ZM38.3048 16.7004C33.682 17.6132 27.2983 17.4257 19.6441 13.5986C12.4883 10.0207 6.79284 10.0658 2.95163 10.9194C2.75336 10.9634 2.55975 11.0097 2.37083 11.0579C1.86792 12.1516 1.46648 13.3018 1.17844 14.4961C1.48608 14.4139 1.80398 14.3358 2.13197 14.2629C6.79202 13.2273 13.3763 13.2723 21.3338 17.2511C28.4897 20.829 34.1851 20.784 38.0264 19.9303C38.158 19.9011 38.2877 19.8709 38.4152 19.8397C38.4292 19.5419 38.4362 19.2422 38.4362 18.9409C38.4362 18.1828 38.3916 17.4352 38.3048 16.7004ZM37.7984 23.8266C33.2204 24.6269 27.0227 24.3197 19.6441 20.6306C12.4883 17.0526 6.79284 17.0977 2.95163 17.9513C2.09899 18.1407 1.33197 18.3715 0.655356 18.6151C0.653511 18.7234 0.652588 18.8321 0.652588 18.9409C0.652588 29.3745 9.11073 37.8327 19.5444 37.8327C28.2885 37.8327 35.6452 31.8921 37.7984 23.8266Z" fill="#7F57F1"/>
</svg>
