<svg width="40" height="39" viewBox="0 0 40 39" fill="none" xmlns="http://www.w3.org/2000/svg">
<path fill-rule="evenodd" clip-rule="evenodd" d="M20.1161 0.208008C30.7538 0.208008 39.3775 8.83162 39.3775 19.4694C39.3775 30.1073 30.7538 38.7309 20.1161 38.7309C9.4782 38.7309 0.854568 30.1073 0.854568 19.4694C0.854568 8.83162 9.4782 0.208008 20.1161 0.208008ZM38.6382 19.4694C38.6382 9.23997 30.3455 0.947264 20.1161 0.947264C19.2909 0.947264 18.4784 1.00122 17.6817 1.1058C18.1965 1.06079 18.7173 1.03782 19.2436 1.03782C29.0184 1.03782 36.9425 8.96188 36.9425 18.7367C36.9425 28.5114 29.0184 36.4355 19.2436 36.4355C9.98953 36.4355 2.39424 29.3332 1.61134 20.282C2.03664 30.1345 10.1587 37.9916 20.1161 37.9916C30.3455 37.9916 38.6382 29.699 38.6382 19.4694ZM36.2032 18.7367C36.2032 9.37013 28.6102 1.77709 19.2436 1.77709C18.4831 1.77709 17.7343 1.82715 17.0002 1.92415C17.4522 1.88612 17.9095 1.86672 18.3713 1.86672C27.2831 1.86672 34.5076 9.0912 34.5076 18.0029C34.5076 26.9148 27.2831 34.1392 18.3713 34.1392C9.94496 34.1392 3.02715 27.6804 2.29852 19.4433C2.66898 28.4821 10.1139 35.6963 19.2436 35.6963C28.6102 35.6963 36.2032 28.1032 36.2032 18.7367ZM18.3713 2.60598C26.8748 2.60598 33.7683 9.49945 33.7683 18.0029C33.7683 26.5064 26.8748 33.3999 18.3713 33.3999C10.0649 33.3999 3.29461 26.8221 2.9854 18.5912C3.65299 26.0204 9.89606 31.8428 17.4991 31.8428C25.5473 31.8428 32.0717 25.3184 32.0717 17.2701C32.0717 9.22183 25.5473 2.69746 17.4991 2.69746C17.0827 2.69746 16.6704 2.71492 16.2629 2.74915C16.9522 2.65475 17.6561 2.60598 18.3713 2.60598ZM31.3324 17.2701C31.3324 9.63018 25.139 3.43672 17.4991 3.43672C16.8535 3.43672 16.2183 3.48093 15.5964 3.56649C15.936 3.53991 16.2792 3.52638 16.6257 3.52638C23.811 3.52638 29.6358 9.35115 29.6358 16.5365C29.6358 23.7217 23.811 29.5465 16.6257 29.5465C9.86277 29.5465 4.30508 24.3863 3.67512 17.7884C3.94766 25.1883 10.0325 31.1036 17.4991 31.1036C25.139 31.1036 31.3324 24.9102 31.3324 17.2701ZM16.6257 4.26563C23.4027 4.26563 28.8965 9.75949 28.8965 16.5365C28.8965 23.3134 23.4027 28.8073 16.6257 28.8073C9.98224 28.8073 4.57187 23.5278 4.36128 16.9355C4.93005 22.726 9.81338 27.2502 15.7534 27.2502C22.0757 27.2502 27.2009 22.1249 27.2009 15.8027C27.2009 9.48046 22.0757 4.35526 15.7534 4.35526C15.4635 4.35526 15.176 4.36604 14.8915 4.38722C15.4581 4.30708 16.037 4.26563 16.6257 4.26563ZM26.4616 15.8027C26.4616 9.88871 21.6674 5.09453 15.7534 5.09453C15.2135 5.09453 14.6831 5.13448 14.1647 5.21157C14.4013 5.19463 14.6402 5.186 14.8811 5.186C20.3398 5.186 24.765 9.61119 24.765 15.0699C24.765 20.5287 20.3398 24.9538 14.8811 24.9538C9.76595 24.9538 5.55837 21.0682 5.04892 16.0876C5.19995 21.8699 9.9347 26.511 15.7534 26.511C21.6674 26.511 26.4616 21.7167 26.4616 15.8027ZM14.8811 5.92527C19.9316 5.92527 24.0257 10.0194 24.0257 15.0699C24.0257 20.1204 19.9316 24.2146 14.8811 24.2146C9.8949 24.2146 5.84079 20.224 5.73841 15.2623C6.19902 19.4222 9.72607 22.6575 14.0088 22.6575C18.6045 22.6575 22.3301 18.9319 22.3301 14.3362C22.3301 9.74051 18.6045 6.0149 14.0088 6.0149C13.833 6.0149 13.6585 6.02035 13.4855 6.03109C13.9405 5.96141 14.4066 5.92527 14.8811 5.92527ZM21.5908 14.3362C21.5908 10.1488 18.1963 6.75417 14.0088 6.75417C13.5883 6.75417 13.1758 6.7884 12.7738 6.85423C12.8936 6.84792 13.0141 6.84472 13.1355 6.84472C16.8682 6.84472 19.8942 9.87067 19.8942 13.6034C19.8942 17.3362 16.8682 20.3621 13.1355 20.3621C9.68402 20.3621 6.83681 17.7749 6.42735 14.4341C6.47977 18.5765 9.85402 21.9183 14.0088 21.9183C18.1963 21.9183 21.5908 18.5237 21.5908 14.3362ZM13.1355 7.58398C16.4599 7.58398 19.1549 10.2789 19.1549 13.6034C19.1549 16.9279 16.4599 19.6228 13.1355 19.6228C9.81105 19.6228 7.11606 16.9279 7.11606 13.6034C7.11606 13.5955 7.11607 13.5874 7.1161 13.5795C7.46222 16.1129 9.63474 18.0649 12.2632 18.0649C15.1324 18.0649 17.4584 15.7389 17.4584 12.8697C17.4584 10.0005 15.1324 7.67456 12.2632 7.67456C12.1983 7.67456 12.1337 7.67574 12.0694 7.6781C12.4154 7.61626 12.7717 7.58398 13.1355 7.58398ZM16.719 12.8697C16.719 10.4088 14.7241 8.41381 12.2632 8.41381C9.80226 8.41381 7.80728 10.4088 7.80728 12.8697C7.80728 15.3306 9.80226 17.3256 12.2632 17.3256C14.7241 17.3256 16.719 15.3306 16.719 12.8697Z" fill="#1A1414"/>
</svg>
