<svg width="124" height="61" viewBox="0 0 124 61" fill="none" xmlns="http://www.w3.org/2000/svg">
<g filter="url(#filter0_d_18_276)">
<g clip-path="url(#clip0_18_276)">
<rect x="4" width="116" height="53" fill="#204EA5"/>
<path d="M29.5938 40C28.8646 40 28.5 39.6094 28.5 38.8281V18.7656C28.5 17.9844 28.8646 17.5938 29.5938 17.5938H34.125C34.7292 17.5938 35.1615 18.0104 35.4219 18.8438L39.6562 32.5469C39.8438 33.1406 39.974 33.6302 40.0469 34.0156C40.1198 34.3906 40.1823 34.8385 40.2344 35.3594H40.3281C40.3802 34.8385 40.4427 34.3906 40.5156 34.0156C40.5885 33.6302 40.7188 33.1406 40.9062 32.5469L45.1406 18.8438C45.401 18.0104 45.8333 17.5938 46.4375 17.5938H50.9688C51.6979 17.5938 52.0625 17.9844 52.0625 18.7656V38.8281C52.0625 39.6094 51.6979 40 50.9688 40H48.5938C47.8646 40 47.5 39.6094 47.5 38.8281V25.9219C47.5 25.2969 47.526 24.6719 47.5781 24.0469H47.4688L42.9531 38.7344C42.6927 39.5781 42.2448 40 41.6094 40H38.9531C38.3177 40 37.8698 39.5781 37.6094 38.7344L33.0938 24.0469H32.9844C33.0365 24.6719 33.0625 25.2969 33.0625 25.9219V38.8281C33.0625 39.6094 32.6979 40 31.9688 40H29.5938ZM62.1465 36.928C62.9998 36.928 63.7038 36.7253 64.2585 36.32C64.8132 35.9147 65.1545 35.3707 65.2825 34.688C65.4105 33.984 65.2505 33.2053 64.8025 32.352L67.7465 30.56L72.6105 40H68.6105L67.2025 36.832C66.9038 37.856 66.2852 38.6987 65.3465 39.36C64.4292 40 63.2452 40.32 61.7945 40.32C59.8958 40.32 58.4025 39.7867 57.3145 38.72C56.2478 37.6533 55.7145 36.2773 55.7145 34.592C55.7145 33.3973 56.0238 32.2773 56.6425 31.232C57.2825 30.1867 58.3598 29.1733 59.8745 28.192C58.8292 27.3813 58.0718 26.5707 57.6025 25.76C57.1332 24.928 56.8985 24.0427 56.8985 23.104C56.8985 22.144 57.1225 21.2693 57.5705 20.48C58.0185 19.6907 58.6692 19.072 59.5225 18.624C60.3972 18.1547 61.4638 17.92 62.7225 17.92C64.5358 17.92 65.9758 18.3893 67.0425 19.328C68.1092 20.2667 68.6425 21.568 68.6425 23.232C68.6425 24.2347 68.4398 25.0987 68.0345 25.824C67.6505 26.5493 67.1172 27.2107 66.4345 27.808C65.7518 28.384 64.9518 28.96 64.0345 29.536L61.7945 30.976C60.8345 31.5947 60.2052 32.192 59.9065 32.768C59.6078 33.344 59.4585 33.8987 59.4585 34.432C59.4585 35.2853 59.7038 35.9147 60.1945 36.32C60.7065 36.7253 61.3572 36.928 62.1465 36.928ZM60.4505 23.296C60.4505 23.7653 60.5785 24.288 60.8345 24.864C61.1118 25.44 61.5812 26.0267 62.2425 26.624C62.9892 26.1333 63.5545 25.728 63.9385 25.408C64.3225 25.0667 64.5892 24.7467 64.7385 24.448C64.8878 24.1493 64.9625 23.8187 64.9625 23.456C64.9625 22.688 64.7492 22.1333 64.3225 21.792C63.8958 21.4293 63.3732 21.248 62.7545 21.248C62.1145 21.248 61.5705 21.4187 61.1225 21.76C60.6745 22.1013 60.4505 22.6133 60.4505 23.296ZM73.8438 28.7969C73.8438 25.2031 74.7812 22.349 76.6562 20.2344C78.5312 18.1198 81.1875 17.0625 84.625 17.0625C86.6979 17.0625 88.3229 17.3281 89.5 17.8594C90.6875 18.3906 91.7292 19.2135 92.625 20.3281C93.1667 21.0052 93.151 21.5312 92.5781 21.9062L90.7969 23.0625C90.276 23.4062 89.7188 23.2552 89.125 22.6094C88.6354 22.0781 88.0156 21.6354 87.2656 21.2812C86.5156 20.9271 85.6875 20.75 84.7812 20.75C82.5938 20.75 81.0365 21.4427 80.1094 22.8281C79.1823 24.2031 78.7188 26.1927 78.7188 28.7969C78.7188 31.401 79.1823 33.3958 80.1094 34.7812C81.0365 36.1562 82.5938 36.8438 84.7812 36.8438C85.8438 36.8438 86.7604 36.7396 87.5312 36.5312C88.3021 36.3125 89.0312 35.9219 89.7188 35.3594V32.5625H86.3281C85.5469 32.5625 85.1562 32.224 85.1562 31.5469V29.7031C85.1562 29.026 85.5469 28.6875 86.3281 28.6875H93.1094C93.8906 28.6875 94.2812 29.026 94.2812 29.7031V37.6406C92.8229 38.7135 91.349 39.4635 89.8594 39.8906C88.3802 40.3177 86.6354 40.5312 84.625 40.5312C81.2396 40.5312 78.5938 39.474 76.6875 37.3594C74.7917 35.2448 73.8438 32.3906 73.8438 28.7969Z" fill="#F9F6F6"/>
</g>
</g>
<defs>
<filter id="filter0_d_18_276" x="0" y="0" width="124" height="61" filterUnits="userSpaceOnUse" color-interpolation-filters="sRGB">
<feFlood flood-opacity="0" result="BackgroundImageFix"/>
<feColorMatrix in="SourceAlpha" type="matrix" values="0 0 0 0 0 0 0 0 0 0 0 0 0 0 0 0 0 0 127 0" result="hardAlpha"/>
<feOffset dy="4"/>
<feGaussianBlur stdDeviation="2"/>
<feComposite in2="hardAlpha" operator="out"/>
<feColorMatrix type="matrix" values="0 0 0 0 0 0 0 0 0 0 0 0 0 0 0 0 0 0 0.25 0"/>
<feBlend mode="normal" in2="BackgroundImageFix" result="effect1_dropShadow_18_276"/>
<feBlend mode="normal" in="SourceGraphic" in2="effect1_dropShadow_18_276" result="shape"/>
</filter>
<clipPath id="clip0_18_276">
<rect x="4" width="116" height="53" fill="white"/>
</clipPath>
</defs>
</svg>
