<svg width="39" height="39" viewBox="0 0 39 39" fill="none" xmlns="http://www.w3.org/2000/svg">
<path fill-rule="evenodd" clip-rule="evenodd" d="M19.1583 38.6857C29.5919 38.6857 38.0501 30.2276 38.0501 19.7939C38.0501 9.36026 29.5919 0.9021 19.1583 0.9021C8.72456 0.9021 0.266418 9.36026 0.266418 19.7939C0.266418 30.2276 8.72456 38.6857 19.1583 38.6857ZM25.0518 9.7027C25.3387 8.68369 24.3498 8.08111 23.4467 8.72454L10.8393 17.706C9.85989 18.4037 10.014 19.7939 11.0708 19.7939H14.3906V19.7682H20.8609L15.5888 21.6284L13.2647 29.8851C12.9778 30.9042 13.9666 31.5067 14.8698 30.8633L27.4772 21.8819C28.4566 21.1841 28.3025 19.7939 27.2457 19.7939H22.2113L25.0518 9.7027Z" fill="#F15757"/>
</svg>
