<svg width="38" height="38" viewBox="0 0 38 38" fill="none" xmlns="http://www.w3.org/2000/svg">
<path d="M23.7022 0.995466L19.9871 0L16.8563 11.6842L14.0298 1.13562L10.3147 2.13109L13.3685 13.528L5.76208 5.92162L3.04242 8.64128L11.3857 16.9847L0.995464 14.2006L0 17.9156L11.3527 20.9576C11.2227 20.397 11.1539 19.8129 11.1539 19.2127C11.1539 14.9643 14.5979 11.5203 18.8463 11.5203C23.0947 11.5203 26.5387 14.9643 26.5387 19.2127C26.5387 19.809 26.4708 20.3895 26.3424 20.9468L36.6599 23.7114L37.6553 19.9963L26.2575 16.9422L36.6484 14.158L35.6529 10.4429L24.2556 13.4968L31.862 5.89039L29.1423 3.17074L20.9148 11.3983L23.7022 0.995466Z" fill="#F97316"/>
<path d="M26.3323 20.9901C26.0138 22.3367 25.3413 23.5465 24.4186 24.5157L31.8932 31.9903L34.6129 29.2707L26.3323 20.9901Z" fill="#F97316"/>
<path d="M24.3431 24.594C23.4093 25.5477 22.2292 26.2595 20.9058 26.6263L23.6257 36.7769L27.3408 35.7813L24.3431 24.594Z" fill="#F97316"/>
<path d="M20.7671 26.6634C20.1531 26.8212 19.5095 26.9051 18.8463 26.9051C18.1358 26.9051 17.4478 26.8087 16.7946 26.6284L14.0723 36.7883L17.7873 37.7837L20.7671 26.6634Z" fill="#F97316"/>
<path d="M16.6633 26.5909C15.3601 26.2059 14.201 25.4851 13.2863 24.5286L5.79333 32.0215L8.51299 34.7412L16.6633 26.5909Z" fill="#F97316"/>
<path d="M13.2237 24.4624C12.3247 23.4999 11.6698 22.3063 11.3581 20.9805L1.0069 23.7541L2.00235 27.4691L13.2237 24.4624Z" fill="#F97316"/>
</svg>
