<svg width="46" height="46" viewBox="0 0 46 46" fill="none" xmlns="http://www.w3.org/2000/svg">
<g clip-path="url(#clip0_18_136)">
<path d="M29.5897 10.7662C30.5316 10.1822 31.3448 9.67783 32.9445 9.24184C34.281 8.8774 35.5142 8.77042 36.6181 8.9062C35.0337 7.95887 32.9528 7.7794 30.535 8.43863C28.9354 8.87462 28.122 9.37904 27.1801 9.96301C26.582 10.3475 25.9617 10.6962 25.3224 11.0074C26.2668 11.4101 27.1093 11.651 27.8783 11.739C28.4653 11.4448 29.0366 11.1201 29.5897 10.7662Z" fill="#EDEEFD"/>
<path d="M31.5071 34.9459C31.1775 31.0545 30.1738 28.0378 28.5244 25.9797C28.3016 25.7031 28.0192 25.4803 27.6983 25.328C27.3775 25.1757 27.0264 25.0979 26.6712 25.1002C26.4811 25.1004 26.2917 25.1227 26.1069 25.167C26.1096 25.1703 26.1125 25.1733 26.115 25.1766C27.7644 27.2347 28.768 30.2513 29.0979 34.1428C29.2487 35.8768 29.2504 37.6205 29.1029 39.3548C29.1016 39.3681 29.0996 39.3816 29.0971 39.3945C29.0713 39.5208 29.0802 39.6517 29.1227 39.7734C29.1653 39.895 29.24 40.003 29.3389 40.0856C29.4378 40.1683 29.5572 40.2227 29.6845 40.243C29.8118 40.2634 29.9422 40.2489 30.0619 40.2011C30.1696 40.1722 30.2713 40.1241 30.3619 40.059C30.8592 39.5345 31.2801 38.9424 31.6122 38.3003C31.6356 37.1811 31.6005 36.0615 31.5071 34.9459Z" fill="#EDEEFD"/>
<path d="M19.3694 39.355C19.3684 39.3461 19.3654 39.3161 19.3609 39.268C17.7786 36.4212 17.422 32.2434 17.6777 28.8999C17.6997 28.6116 17.7222 28.3437 17.7432 28.0935C17.8785 26.4854 17.9602 25.5149 17.4161 24.6361C16.8928 23.7904 15.8256 23.1254 13.7771 22.0409C12.6478 21.4431 11.7856 20.2434 11.349 18.6632C10.9203 17.0542 10.9571 15.3566 11.455 13.7676C11.9531 12.2095 12.8691 10.955 14.1041 10.1398C15.5464 9.1878 17.3692 8.84988 19.5222 9.13542C19.5982 9.14547 19.6752 9.15808 19.7525 9.1717C18.8543 8.76663 17.938 8.44176 17.1127 8.33221C14.9596 8.0471 13.1369 8.38459 11.6945 9.33663C10.4595 10.1518 9.54357 11.4063 9.04542 12.9644C8.54756 14.5534 8.51078 16.251 8.93943 17.86C9.376 19.4402 10.2382 20.6398 11.3676 21.2377C13.4161 22.3222 14.4831 22.9872 15.0066 23.8329C15.5506 24.7116 15.4689 25.6822 15.3337 27.2903C15.3126 27.5405 15.2901 27.8084 15.2681 28.0967C14.9589 32.1403 15.5434 37.4064 18.1111 40.0595C18.2016 40.1241 18.303 40.172 18.4103 40.2009C18.5821 40.2648 18.7717 40.2619 18.9416 40.1929C19.1114 40.1239 19.2493 39.9938 19.328 39.8282C19.387 39.6916 19.4035 39.5404 19.3754 39.3943C19.3723 39.3813 19.3705 39.3682 19.3694 39.355Z" fill="#EDEEFD"/>
<path d="M4.08237 30.1379C4.17094 30.1379 4.25814 30.116 4.33613 30.074C4.41412 30.032 4.48046 29.9713 4.52917 29.8973C4.84 29.4227 5.28475 29.051 5.80704 28.8294C6.32934 28.6078 6.90567 28.5463 7.46295 28.6525C7.5844 28.6755 7.70999 28.6556 7.81847 28.5964C7.92689 28.5372 8.01149 28.4422 8.05775 28.3276C8.10408 28.2131 8.10928 28.086 8.0725 27.968C8.03565 27.85 7.9591 27.7485 7.85589 27.6806C7.3812 27.3698 7.00942 26.925 6.7878 26.4026C6.56618 25.8803 6.50467 25.3038 6.61105 24.7465C6.63404 24.625 6.61422 24.4994 6.55498 24.3909C6.49574 24.2824 6.40074 24.1978 6.28614 24.1515C6.17154 24.1051 6.04444 24.0999 5.92645 24.1368C5.80847 24.1736 5.70689 24.2503 5.63903 24.3535C5.32816 24.8282 4.88341 25.1998 4.36112 25.4213C3.83883 25.6429 3.26252 25.7045 2.70522 25.5982C2.5838 25.5753 2.45818 25.5951 2.34975 25.6543C2.2413 25.7136 2.15673 25.8086 2.11042 25.9231C2.06411 26.0377 2.05892 26.1647 2.09572 26.2827C2.13253 26.4007 2.20907 26.5022 2.31231 26.5701C2.78695 26.881 3.15861 27.3257 3.38019 27.8481C3.60177 28.3703 3.6633 28.9466 3.55697 29.5039C3.54236 29.5812 3.54497 29.6607 3.5646 29.7368C3.58423 29.8129 3.62041 29.8838 3.67056 29.9443C3.7207 30.0049 3.78358 30.0535 3.85472 30.087C3.92585 30.1205 4.00348 30.1379 4.08209 30.1379H4.08237ZM5.55136 25.9697C5.65477 26.556 5.89016 27.1109 6.2397 27.5927C5.65369 27.6963 5.09888 27.9317 4.6172 28.2811C4.51368 27.695 4.27826 27.1402 3.92877 26.6585C4.51484 26.5548 5.06968 26.3193 5.55136 25.9697Z" fill="#3EE09A"/>
<path d="M43.1153 8.83823C42.1187 8.64072 41.2031 8.15177 40.4847 7.43331C39.7663 6.71492 39.2773 5.79937 39.0798 4.80275C39.0555 4.68161 38.99 4.57263 38.8945 4.49433C38.7989 4.41602 38.6792 4.37323 38.5557 4.37323C38.4322 4.37323 38.3124 4.41602 38.2168 4.49433C38.1213 4.57263 38.0558 4.68161 38.0315 4.80275C37.834 5.79937 37.3451 6.71492 36.6267 7.43331C35.9082 8.15177 34.9927 8.64072 33.9961 8.83823C33.8749 8.86246 33.7659 8.92796 33.6876 9.02355C33.6093 9.11906 33.5666 9.2388 33.5666 9.36239C33.5666 9.48591 33.6093 9.60566 33.6876 9.70117C33.7659 9.79675 33.8749 9.86225 33.9961 9.88648C34.9927 10.084 35.9082 10.5729 36.6267 11.2914C37.3451 12.0098 37.834 12.9253 38.0315 13.922C38.0558 14.0431 38.1213 14.1521 38.2168 14.2304C38.3124 14.3087 38.4322 14.3515 38.5557 14.3515C38.6792 14.3515 38.7989 14.3087 38.8945 14.2304C38.99 14.1521 39.0555 14.0431 39.0798 13.922C39.2773 12.9253 39.7662 12.0098 40.4847 11.2914C41.2031 10.5729 42.1186 10.084 43.1153 9.88648C43.2364 9.86225 43.3454 9.79675 43.4237 9.70117C43.502 9.60566 43.5448 9.48591 43.5448 9.36239C43.5448 9.2388 43.502 9.11906 43.4237 9.02355C43.3454 8.92796 43.2364 8.86246 43.1153 8.83823ZM38.5557 12.1704C37.9536 10.9513 36.9668 9.96453 35.7478 9.36246C36.9668 8.76039 37.9536 7.77365 38.5557 6.55462C39.1577 7.77372 40.1446 8.76054 41.3636 9.36261C40.1446 9.96467 39.1577 10.9514 38.5557 12.1704Z" fill="#3EE09A"/>
<path d="M12.4892 34.2202C12.4891 34.0966 12.4464 33.9768 12.368 33.8813C12.2896 33.7857 12.1806 33.7202 12.0595 33.696C11.2295 33.5315 10.467 33.1243 9.86873 32.526C9.27044 31.9277 8.86324 31.1652 8.69881 30.3353C8.6745 30.2141 8.609 30.1051 8.51349 30.0268C8.41791 29.9485 8.29816 29.9057 8.17464 29.9057C8.05112 29.9057 7.93138 29.9485 7.8358 30.0268C7.74029 30.1051 7.67478 30.2141 7.65048 30.3353C7.48597 31.1651 7.07876 31.9276 6.48048 32.5258C5.88219 33.1241 5.11977 33.5312 4.28984 33.6957C4.1687 33.72 4.05972 33.7855 3.98141 33.881C3.90311 33.9766 3.86032 34.0964 3.86032 34.2199C3.86032 34.3434 3.90311 34.4632 3.98141 34.5587C4.05972 34.6543 4.1687 34.7198 4.28984 34.7441C5.1198 34.9085 5.88226 35.3157 6.48055 35.914C7.07884 36.5123 7.48604 37.2747 7.65048 38.1047C7.67478 38.2258 7.74029 38.3348 7.8358 38.4131C7.93138 38.4914 8.05112 38.5342 8.17464 38.5342C8.29816 38.5342 8.41791 38.4914 8.51349 38.4131C8.609 38.3348 8.6745 38.2258 8.69881 38.1047C8.86324 37.2747 9.27044 36.5123 9.86873 35.914C10.467 35.3157 11.2295 34.9085 12.0595 34.7441C12.1806 34.7198 12.2895 34.6544 12.3679 34.5589C12.4462 34.4634 12.4891 34.3437 12.4892 34.2202ZM8.17464 36.4252C7.67585 35.4868 6.90795 34.7189 5.96954 34.2202C6.90789 33.7212 7.67578 32.9534 8.17464 32.015C8.6735 32.9534 9.44143 33.7212 10.3798 34.2202C9.44136 34.7189 8.67343 35.4868 8.17464 36.4252Z" fill="#3EE09A"/>
<path d="M-15.7337 5.09205C-13.8933 6.06639 -12.8862 6.67844 -12.4892 7.31942C-12.1228 7.91137 -12.1898 8.70709 -12.311 10.1515C-12.3322 10.4036 -12.3549 10.6737 -12.3771 10.9642C-12.5566 13.311 -12.4273 15.7339 -12.0131 17.7864C-11.4963 20.3482 -10.5685 22.3347 -9.25597 23.6909C-8.99311 23.9598 -8.65105 24.1375 -8.27992 24.1979C-7.90878 24.2584 -7.52803 24.1986 -7.19339 24.0271C-6.85875 23.8556 -6.58776 23.5815 -6.42011 23.2449C-6.25247 22.9083 -6.19695 22.5269 -6.26167 22.1565C-6.30557 21.7009 -7.06637 13.1708 -3.43529 8.75093C-3.30564 8.5974 -3.14384 8.47424 -2.96138 8.39013C-2.77891 8.30595 -2.58026 8.26283 -2.37934 8.2639C-2.17841 8.2649 -1.98012 8.30994 -1.79851 8.3959C-1.61697 8.48186 -1.45638 8.60667 -1.3283 8.76141C2.23115 13.2028 1.48233 21.7001 1.43885 22.1569C1.39337 22.4066 1.40378 22.6633 1.46928 22.9085C1.53479 23.1537 1.65382 23.3814 1.81782 23.5751C1.98176 23.7689 2.1866 23.9239 2.41761 24.0291C2.64861 24.1343 2.90001 24.1871 3.15382 24.1836C3.35168 24.1836 3.54812 24.1507 3.73515 24.0861C3.99537 24.0104 4.23443 23.875 4.43322 23.6909C5.7457 22.3347 6.67336 20.3482 7.19039 17.7864C7.60458 15.7338 7.73387 13.311 7.5544 10.9642C7.5323 10.675 7.50985 10.4061 7.48868 10.1551C7.36723 8.71009 7.3003 7.91401 7.66687 7.32192C8.06324 6.68157 9.07051 6.06831 10.9115 5.09112C12.3966 4.30281 13.5008 2.61514 13.9407 0.46089C14.3642 -1.61246 14.1322 -3.85829 13.3042 -5.70063C13.2758 -5.76528 13.2349 -5.82366 13.1838 -5.87241C13.1327 -5.92109 13.0725 -5.95922 13.0067 -5.9846C12.9408 -6.00997 12.8705 -6.02202 12.8 -6.02002C12.7294 -6.0181 12.66 -6.0022 12.5956 -5.97326C12.5312 -5.94433 12.4732 -5.90291 12.4249 -5.85145C12.3766 -5.79999 12.3389 -5.73948 12.3142 -5.67333C12.2894 -5.60726 12.2779 -5.53691 12.2805 -5.46642C12.2831 -5.39586 12.2995 -5.32651 12.329 -5.26243C13.0672 -3.61987 13.2729 -1.61174 12.8933 0.246848C12.5173 2.08734 11.6122 3.50872 10.4101 4.14671C6.26252 6.34829 6.13928 6.86468 6.42325 10.2443C6.44413 10.4929 6.46644 10.7592 6.48839 11.0454C6.95782 17.1841 5.33772 21.2187 3.66758 22.9445C3.58205 23.0033 3.48732 23.0475 3.38725 23.075C3.22845 23.1343 3.05311 23.132 2.89594 23.0685C2.73871 23.0051 2.61091 22.8851 2.53771 22.7321C2.48304 22.6056 2.46779 22.4654 2.49388 22.3301C2.49666 22.3155 2.49879 22.3008 2.50029 22.2861C2.64783 20.5514 2.64619 18.8072 2.49544 17.0728C2.16522 13.177 1.15902 10.1556 -0.494015 8.09255C-0.721598 7.81365 -1.00805 7.58849 -1.33286 7.43325C-1.65774 7.27801 -2.01283 7.19647 -2.37285 7.19447C-2.73286 7.19248 -3.08882 7.27017 -3.41533 7.42184C-3.74177 7.57359 -4.03073 7.79562 -4.26138 8.07202C-5.94755 10.1245 -6.97464 13.1463 -7.31406 17.0537C-7.4688 18.7944 -7.47179 20.5453 -7.32297 22.2864C-7.32133 22.3011 -7.31919 22.3156 -7.31655 22.3301C-7.29039 22.4654 -7.30572 22.6055 -7.36039 22.7321C-7.43352 22.885 -7.56131 23.0051 -7.71855 23.0685C-7.87578 23.1319 -8.05105 23.1343 -8.20986 23.075C-8.3085 23.047 -8.40223 23.0038 -8.48762 22.947C-10.1603 21.2186 -11.7804 17.1845 -11.311 11.0454C-11.289 10.7578 -11.2665 10.4904 -11.2455 10.2408C-10.961 6.85941 -11.0843 6.34301 -15.2332 4.14671C-16.3474 3.55683 -17.199 2.37101 -17.6309 0.807648C-18.0561 -0.78865 -18.0196 -2.4729 -17.5256 -4.04931C-17.0051 -5.67811 -15.1838 -9.38653 -9.53003 -8.6367C-7.68234 -8.39159 -5.36836 -7.05538 -3.83686 -6.17105C-3.37627 -5.90505 -2.97848 -5.67533 -2.68383 -5.52879C-1.2613 -4.82137 0.873915 -3.92836 2.98133 -4.33955C3.05026 -4.35302 3.11583 -4.37989 3.17435 -4.41866C3.23287 -4.45751 3.28312 -4.50747 3.32232 -4.56571C3.36152 -4.62394 3.38889 -4.6893 3.40286 -4.75808C3.41676 -4.82693 3.41704 -4.89778 3.40357 -4.9667C3.3901 -5.03556 3.36323 -5.1012 3.32438 -5.15965C3.28561 -5.21817 3.23565 -5.26849 3.17741 -5.30769C3.11918 -5.34689 3.05382 -5.37426 2.98504 -5.38816C2.91619 -5.40213 2.84534 -5.40234 2.77641 -5.38894C1.64926 -5.16891 0.368923 -5.37155 -1.19537 -6.0228C-0.593872 -6.32195 -0.00912285 -6.65352 0.556381 -7.01603C1.49316 -7.59693 2.30264 -8.09864 3.8916 -8.53193C6.09167 -9.1315 7.98106 -9.05381 9.50779 -8.30099C9.63487 -8.2392 9.7812 -8.23022 9.91477 -8.27598C10.0484 -8.32174 10.1585 -8.4186 10.221 -8.54526C10.2835 -8.67191 10.2933 -8.81824 10.2483 -8.9521C10.2032 -9.08603 10.1071 -9.19665 9.9807 -9.2598C8.21306 -10.1317 6.06993 -10.2339 3.61041 -9.56336C1.87092 -9.08924 0.958803 -8.52352 -0.00684357 -7.92473C-0.756596 -7.43699 -1.54747 -7.01539 -2.37035 -6.66478C-2.40172 -6.65138 -2.43237 -6.63634 -2.46209 -6.61967C-2.69694 -6.74753 -2.98354 -6.9129 -3.30215 -7.09686C-4.9065 -8.02345 -7.33116 -9.42359 -9.38904 -9.69658C-13.8672 -10.2906 -17.2893 -8.30078 -18.5444 -4.3744C-19.7471 -0.611742 -18.4862 3.63488 -15.7337 5.09205Z" fill="#0E1681"/>
</g>
<defs>
<clipPath id="clip0_18_136">
<rect width="45.6166" height="45.6166" fill="white"/>
</clipPath>
</defs>
</svg>
