<svg width="60" height="59" viewBox="0 0 60 59" fill="none" xmlns="http://www.w3.org/2000/svg">
<rect x="0.863281" y="0.28772" width="58.1563" height="58.1563" rx="6" fill="#DBE7FF"/>
<path d="M37.1925 17.5914C38.1344 17.0074 38.9477 16.503 40.5474 16.067C41.8838 15.7026 43.117 15.5956 44.221 15.7314C42.6366 14.7841 40.5557 14.6046 38.1378 15.2638C36.5383 15.6998 35.7249 16.2042 34.7829 16.7882C34.1849 17.1727 33.5646 17.5213 32.9253 17.8326C33.8697 18.2352 34.7122 18.4762 35.4812 18.5642C36.0682 18.27 36.6395 17.9453 37.1925 17.5914Z" fill="#EDEEFD"/>
<path d="M39.11 41.7711C38.7803 37.8797 37.7766 34.863 36.1272 32.8049C35.9044 32.5283 35.6221 32.3054 35.3012 32.1532C34.9803 32.0009 34.6292 31.9231 34.274 31.9254C34.0839 31.9255 33.8946 31.9479 33.7097 31.9922C33.7125 31.9955 33.7153 31.9985 33.7179 32.0018C35.3673 34.0599 36.3708 37.0764 36.7007 40.968C36.8515 42.702 36.8532 44.4457 36.7058 46.18C36.7044 46.1933 36.7025 46.2068 36.7 46.2197C36.6742 46.346 36.683 46.4769 36.7256 46.5986C36.7681 46.7202 36.8428 46.8281 36.9418 46.9108C37.0406 46.9935 37.1601 47.0479 37.2874 47.0682C37.4146 47.0886 37.545 47.074 37.6648 47.0263C37.7725 46.9974 37.8741 46.9493 37.9647 46.8842C38.4621 46.3596 38.883 45.7676 39.215 45.1255C39.2384 44.0063 39.2033 42.8867 39.11 41.7711Z" fill="#EDEEFD"/>
<path d="M26.9722 46.1802C26.9712 46.1713 26.9682 46.1413 26.9637 46.0932C25.3814 43.2464 25.0248 39.0686 25.2805 35.7251C25.3025 35.4368 25.325 35.1688 25.3461 34.9187C25.4813 33.3106 25.563 32.34 25.019 31.4613C24.4956 30.6156 23.4285 29.9506 21.38 28.8661C20.2506 28.2683 19.3884 27.0686 18.9518 25.4884C18.5232 23.8794 18.56 22.1818 19.0578 20.5928C19.556 19.0347 20.4719 17.7802 21.7069 16.965C23.1493 16.013 24.9721 15.6751 27.125 15.9606C27.201 15.9707 27.278 15.9833 27.3553 15.9969C26.4571 15.5918 25.5409 15.267 24.7155 15.1574C22.5625 14.8723 20.7397 15.2098 19.2973 16.1618C18.0624 16.977 17.1464 18.2315 16.6483 19.7896C16.1504 21.3786 16.1136 23.0762 16.5423 24.6852C16.9788 26.2654 17.8411 27.465 18.9704 28.0629C21.0189 29.1474 22.086 29.8124 22.6094 30.6581C23.1535 31.5368 23.0717 32.5074 22.9365 34.1155C22.9155 34.3657 22.893 34.6336 22.8709 34.9219C22.5617 38.9655 23.1462 44.2316 25.7139 46.8847C25.8044 46.9493 25.9058 46.9972 26.0131 47.0261C26.185 47.09 26.3746 47.0871 26.5444 47.0181C26.7143 46.9491 26.8521 46.819 26.9308 46.6534C26.9898 46.5168 27.0064 46.3656 26.9782 46.2195C26.9752 46.2065 26.9733 46.1934 26.9722 46.1802Z" fill="#EDEEFD"/>
<path d="M18.5946 28.9766C20.435 29.951 21.4422 30.563 21.8392 31.204C22.2055 31.7959 22.1386 32.5917 22.0173 34.0361C21.9961 34.2882 21.9734 34.5583 21.9512 34.8488C21.7717 37.1956 21.9011 39.6185 22.3153 41.671C22.832 44.2328 23.7598 46.2193 25.0724 47.5755C25.3352 47.8444 25.6773 48.0221 26.0484 48.0825C26.4196 48.143 26.8003 48.0832 27.135 47.9117C27.4696 47.7402 27.7406 47.466 27.9082 47.1295C28.0759 46.7929 28.1314 46.4115 28.0667 46.0411C28.0228 45.5855 27.262 37.0554 30.8931 32.6355C31.0227 32.482 31.1845 32.3588 31.367 32.2747C31.5494 32.1905 31.7481 32.1474 31.949 32.1485C32.1499 32.1495 32.3482 32.1945 32.5298 32.2805C32.7114 32.3664 32.872 32.4912 33.0001 32.646C36.5595 37.0874 35.8107 45.5846 35.7672 46.0415C35.7217 46.2911 35.7321 46.5479 35.7976 46.7931C35.8631 47.0383 35.9822 47.266 36.1462 47.4597C36.3101 47.6535 36.515 47.8085 36.746 47.9137C36.977 48.0189 37.2284 48.0717 37.4822 48.0682C37.68 48.0682 37.8765 48.0353 38.0635 47.9707C38.3237 47.895 38.5628 47.7596 38.7616 47.5755C40.0741 46.2193 41.0017 44.2328 41.5187 41.671C41.9329 39.6184 42.0622 37.1955 41.8828 34.8488C41.8607 34.5596 41.8382 34.2907 41.817 34.0397C41.6956 32.5947 41.6287 31.7986 41.9952 31.2065C42.3916 30.5662 43.3989 29.9529 45.2399 28.9757C46.725 28.1874 47.8292 26.4997 48.2691 24.3455C48.6925 22.2721 48.4605 20.0263 47.6325 18.1839C47.6041 18.1193 47.5632 18.0609 47.5121 18.0122C47.4611 17.9635 47.4009 17.9254 47.335 17.9C47.2691 17.8746 47.1989 17.8626 47.1283 17.8646C47.0577 17.8665 46.9883 17.8824 46.924 17.9113C46.8595 17.9403 46.8015 17.9817 46.7533 18.0331C46.7049 18.0846 46.6673 18.1451 46.6426 18.2112C46.6178 18.2773 46.6063 18.3477 46.6088 18.4182C46.6114 18.4887 46.6279 18.5581 46.6574 18.6222C47.3955 20.2647 47.6012 22.2728 47.2216 24.1314C46.8457 25.9719 45.9406 27.3933 44.7385 28.0313C40.5909 30.2329 40.4676 30.7493 40.7516 34.1289C40.7725 34.3775 40.7948 34.6438 40.8167 34.93C41.2862 41.0687 39.6661 45.1032 37.9959 46.8291C37.9104 46.8879 37.8157 46.932 37.7156 46.9596C37.5568 47.0189 37.3815 47.0166 37.2243 46.9531C37.0671 46.8896 36.9393 46.7697 36.8661 46.6167C36.8114 46.4901 36.7961 46.35 36.8222 46.2147C36.825 46.2001 36.8271 46.1854 36.8286 46.1707C36.9762 44.436 36.9745 42.6918 36.8238 40.9573C36.4936 37.0615 35.4874 34.0401 33.8343 31.9771C33.6068 31.6982 33.3203 31.4731 32.9955 31.3178C32.6706 31.1626 32.3155 31.0811 31.9555 31.0791C31.5955 31.0771 31.2395 31.1548 30.913 31.3064C30.5866 31.4582 30.2976 31.6802 30.067 31.9566C28.3808 34.0091 27.3537 37.0309 27.0143 40.9383C26.8596 42.679 26.8566 44.4299 27.0054 46.171C27.007 46.1856 27.0092 46.2002 27.0118 46.2147C27.038 46.35 27.0226 46.4901 26.968 46.6166C26.8948 46.7696 26.767 46.8896 26.6098 46.9531C26.4526 47.0165 26.2773 47.0189 26.1185 46.9596C26.0199 46.9316 25.9261 46.8884 25.8407 46.8316C24.1681 45.1032 22.548 41.0691 23.0174 34.93C23.0394 34.6424 23.0619 34.375 23.0829 34.1254C23.3673 30.744 23.244 30.2276 19.0951 28.0313C17.9809 27.4414 17.1293 26.2556 16.6975 24.6922C16.2723 23.0959 16.3088 21.4117 16.8028 19.8353C17.3233 18.2065 19.1446 14.4981 24.7983 15.2479C26.646 15.493 28.96 16.8292 30.4915 17.7135C30.9521 17.9795 31.3499 18.2093 31.6445 18.3558C33.0671 19.0632 35.2023 19.9562 37.3097 19.545C37.3786 19.5316 37.4442 19.5047 37.5027 19.4659C37.5612 19.4271 37.6115 19.3771 37.6507 19.3189C37.6899 19.2606 37.7172 19.1953 37.7312 19.1265C37.7451 19.0576 37.7454 18.9868 37.7319 18.9179C37.7185 18.849 37.6916 18.7834 37.6527 18.7249C37.614 18.6664 37.564 18.6161 37.5058 18.5769C37.4475 18.5377 37.3822 18.5103 37.3134 18.4964C37.2445 18.4825 37.1737 18.4822 37.1048 18.4956C35.9776 18.7157 34.6973 18.513 33.133 17.8618C33.7345 17.5626 34.3192 17.2311 34.8847 16.8686C35.8215 16.2877 36.631 15.7859 38.2199 15.3527C40.42 14.7531 42.3094 14.8308 43.8361 15.5836C43.9632 15.6454 44.1096 15.6544 44.2431 15.6086C44.3768 15.5628 44.4869 15.466 44.5494 15.3393C44.6118 15.2127 44.6217 15.0663 44.5766 14.9325C44.5316 14.7986 44.4354 14.6879 44.3091 14.6248C42.5414 13.7529 40.3983 13.6507 37.9388 14.3212C36.1993 14.7953 35.2872 15.3611 34.3215 15.9599C33.5718 16.4476 32.7809 16.8692 31.958 17.2198C31.9266 17.2332 31.896 17.2482 31.8663 17.2649C31.6314 17.137 31.3448 16.9717 31.0262 16.7877C29.4219 15.8611 26.9972 14.461 24.9393 14.188C20.4612 13.594 17.0391 15.5838 15.784 19.5102C14.5813 23.2728 15.8421 27.5195 18.5946 28.9766Z" fill="#0E1681"/>
<path d="M11.6852 36.9631C11.7738 36.9631 11.861 36.9412 11.939 36.8992C12.017 36.8572 12.0833 36.7965 12.132 36.7225C12.4428 36.2479 12.8876 35.8762 13.4099 35.6546C13.9322 35.433 14.5085 35.3715 15.0658 35.4777C15.1872 35.5007 15.3128 35.4808 15.4213 35.4216C15.5297 35.3623 15.6143 35.2674 15.6606 35.1528C15.7069 35.0383 15.7121 34.9112 15.6753 34.7932C15.6385 34.6752 15.5619 34.5737 15.4587 34.5058C14.984 34.195 14.6123 33.7502 14.3906 33.2278C14.169 32.7055 14.1075 32.129 14.2139 31.5717C14.2369 31.4502 14.2171 31.3246 14.1578 31.2161C14.0986 31.1076 14.0036 31.023 13.889 30.9767C13.7744 30.9303 13.6473 30.9251 13.5293 30.962C13.4113 30.9988 13.3097 31.0755 13.2419 31.1787C12.931 31.6534 12.4863 32.025 11.964 32.2465C11.4417 32.4681 10.8654 32.5297 10.3081 32.4234C10.1866 32.4005 10.061 32.4203 9.95259 32.4795C9.84414 32.5388 9.75957 32.6338 9.71327 32.7483C9.66695 32.8629 9.66176 32.9899 9.69857 33.1079C9.73538 33.2258 9.81191 33.3274 9.91516 33.3953C10.3898 33.7062 10.7615 34.1509 10.983 34.6732C11.2046 35.1955 11.2661 35.7718 11.1598 36.3291C11.1452 36.4064 11.1478 36.4859 11.1674 36.562C11.1871 36.6381 11.2233 36.709 11.2734 36.7695C11.3235 36.8301 11.3864 36.8787 11.4576 36.9122C11.5287 36.9457 11.6063 36.9631 11.6849 36.9631H11.6852ZM13.1542 32.7949C13.2576 33.3812 13.493 33.9361 13.8425 34.4179C13.2565 34.5215 12.7017 34.7569 12.22 35.1063C12.1165 34.5202 11.8811 33.9654 11.5316 33.4837C12.1177 33.38 12.6725 33.1445 13.1542 32.7949Z" fill="#3EE09A"/>
<path d="M50.7181 15.6634C49.7215 15.4659 48.8059 14.977 48.0875 14.2585C47.3691 13.5401 46.8802 12.6246 46.6827 11.6279C46.6584 11.5068 46.5929 11.3978 46.4974 11.3195C46.4018 11.2412 46.282 11.1984 46.1585 11.1984C46.035 11.1984 45.9153 11.2412 45.8197 11.3195C45.7241 11.3978 45.6587 11.5068 45.6344 11.6279C45.4369 12.6246 44.9479 13.5401 44.2295 14.2585C43.511 14.977 42.5955 15.4659 41.5989 15.6634C41.4778 15.6877 41.3688 15.7532 41.2904 15.8487C41.2122 15.9443 41.1694 16.064 41.1694 16.1876C41.1694 16.3111 41.2122 16.4309 41.2904 16.5264C41.3688 16.6219 41.4778 16.6874 41.5989 16.7117C42.5955 16.9092 43.511 17.3981 44.2295 18.1166C44.9479 18.835 45.4369 19.7505 45.6344 20.7472C45.6587 20.8683 45.7241 20.9773 45.8197 21.0556C45.9153 21.1339 46.035 21.1767 46.1585 21.1767C46.282 21.1767 46.4018 21.1339 46.4974 21.0556C46.5929 20.9773 46.6584 20.8683 46.6827 20.7472C46.8801 19.7505 47.3691 18.835 48.0875 18.1166C48.8059 17.3981 49.7215 16.9092 50.7181 16.7117C50.8393 16.6874 50.9483 16.6219 51.0265 16.5264C51.1049 16.4309 51.1476 16.3111 51.1476 16.1876C51.1476 16.064 51.1049 15.9443 51.0265 15.8487C50.9483 15.7532 50.8393 15.6877 50.7181 15.6634ZM46.1585 18.9956C45.5565 17.7765 44.5696 16.7897 43.3506 16.1877C44.5696 15.5856 45.5565 14.5988 46.1585 13.3798C46.7606 14.5989 47.7474 15.5857 48.9664 16.1878C47.7474 16.7899 46.7606 17.7766 46.1585 18.9956Z" fill="#3EE09A"/>
<path d="M20.092 41.0454C20.092 40.9218 20.0492 40.802 19.9709 40.7065C19.8925 40.6109 19.7835 40.5454 19.6623 40.5212C18.8323 40.3567 18.0699 39.9495 17.4716 39.3512C16.8733 38.7529 16.4661 37.9904 16.3017 37.1605C16.2773 37.0393 16.2118 36.9303 16.1163 36.852C16.0208 36.7737 15.901 36.7309 15.7775 36.7309C15.654 36.7309 15.5342 36.7737 15.4386 36.852C15.3431 36.9303 15.2776 37.0393 15.2533 37.1605C15.0888 37.9903 14.6816 38.7528 14.0833 39.351C13.485 39.9493 12.7226 40.3564 11.8927 40.5209C11.7715 40.5452 11.6626 40.6107 11.5843 40.7062C11.506 40.8018 11.4632 40.9216 11.4632 41.0451C11.4632 41.1686 11.506 41.2884 11.5843 41.3839C11.6626 41.4794 11.7715 41.5449 11.8927 41.5693C12.7226 41.7337 13.4851 42.1409 14.0834 42.7392C14.6817 43.3375 15.0889 44.0999 15.2533 44.9299C15.2776 45.051 15.3431 45.16 15.4386 45.2383C15.5342 45.3166 15.654 45.3594 15.7775 45.3594C15.901 45.3594 16.0208 45.3166 16.1163 45.2383C16.2118 45.16 16.2773 45.051 16.3017 44.9299C16.4661 44.0999 16.8733 43.3375 17.4716 42.7392C18.0699 42.1409 18.8323 41.7337 19.6623 41.5693C19.7834 41.545 19.8924 41.4796 19.9707 41.3841C20.0491 41.2886 20.092 41.1689 20.092 41.0454ZM15.7775 43.2504C15.2787 42.3119 14.5108 41.5441 13.5724 41.0454C14.5107 40.5464 15.2786 39.7786 15.7775 38.8402C16.2763 39.7786 17.0443 40.5464 17.9826 41.0454C17.0442 41.5441 16.2763 42.3119 15.7775 43.2504Z" fill="#3EE09A"/>
</svg>
